<?xml version="1.0" standalone="no"?>
<!DOCTYPE svg PUBLIC "-//W3C//DTD SVG 1.1//EN" "http://www.w3.org/Graphics/SVG/1.1/DTD/svg11.dtd" >
<svg xmlns="http://www.w3.org/2000/svg" xmlns:xlink="http://www.w3.org/1999/xlink" version="1.1">
<metadata>
Created by FontForge 20190801 at Sun Aug  2 14:21:34 2020
 By www-data
</metadata>
<defs>
<font id="Briar" horiz-adv-x="737" >
  <font-face 
    font-family="Briar"
    font-weight="700"
    font-stretch="normal"
    units-per-em="1000"
    panose-1="0 0 0 0 0 0 0 0 0 0"
    ascent="800"
    descent="-200"
    x-height="699"
    cap-height="700"
    bbox="-328 -244 1435 947"
    underline-thickness="0"
    underline-position="0"
    unicode-range="U+000A-2212"
  />
<missing-glyph horiz-adv-x="527" 
d="M50 700h427v-700h-427v700zM78 680l185 -309l186 309h-371zM251 350l-180 300v-601zM264 329l-185 -308h370zM276 350l181 -303v605z" />
    <glyph glyph-name=".notdef" horiz-adv-x="527" 
d="M50 700h427v-700h-427v700zM78 680l185 -309l186 309h-371zM251 350l-180 300v-601zM264 329l-185 -308h370zM276 350l181 -303v605z" />
    <glyph glyph-name=".null" horiz-adv-x="0" 
 />
    <glyph glyph-name=".null" horiz-adv-x="0" 
 />
    <glyph glyph-name="nonmarkingreturn" horiz-adv-x="333" 
 />
    <glyph glyph-name="controlLF" unicode="&#xa;" horiz-adv-x="0" 
 />
    <glyph glyph-name="controlCR" unicode="&#xd;" horiz-adv-x="0" 
 />
    <glyph glyph-name="space" unicode=" " horiz-adv-x="420" 
 />
    <glyph glyph-name="exclam" unicode="!" horiz-adv-x="360" 
d="M316 400v-161h-213l-1 172q0 21 -12.5 34.5t-27.5 18.5t-27.5 18t-12.5 34q0 17 12.5 36t27.5 33t28 34t13 40v32h213v-14q-2 -57 -87 -108q-15 -9 -40.5 -16.5t-48.5 -12t-44.5 -9t-33.5 -11t-11 -15.5q3 -16 34.5 -15t70 8.5t74.5 -0.5q42 -10 63.5 -36t22.5 -62z
M213 199q43 0 73.5 -30.5t30.5 -73.5t-30.5 -73.5t-73.5 -30.5t-73.5 30.5t-30.5 73.5t30.5 73.5t73.5 30.5z" />
    <glyph glyph-name="quotedbl" unicode="&#x22;" horiz-adv-x="530" 
d="M294 703h208v-153l-70 -146h-68l-27 56l-43 90v153zM28 550v153h208v-153l-69 -146h-68l-27 56z" />
    <glyph glyph-name="numbersign" unicode="#" horiz-adv-x="795" 
d="M774 474v-27h-106l-43 -219h100v-27h-106l-42 -211h-198l41 211h-103l-42 -211h-199l42 211h-98v27h104l43 219h-97v27h102l43 216h199l-43 -216h103l43 216h199l-43 -216h101zM426 228l43 219h-103l-44 -219h104z" />
    <glyph glyph-name="dollar" unicode="$" horiz-adv-x="771" 
d="M400 379q22 -3 57 -6.5t59.5 -6t56.5 -8t54 -12.5t45.5 -19.5t37.5 -29.5t23 -42.5t9 -57.5q0 -67 -50 -117t-126 -74t-166 -26v-86h-27v86q-80 2 -150.5 22t-123 61.5t-68.5 98.5l24 15q17 -54 70 -93.5t120 -53.5t128 -2v329q-26 5 -62.5 8t-65.5 4.5t-62 5.5t-57.5 12
t-44.5 22t-31 38t-11 58q0 59 49.5 102.5t124 64.5t160.5 21v64h27v-64q100 -4 178.5 -36t106.5 -89l-20 -9q-36 50 -111.5 74t-153.5 16v-270zM373 383v262q-62 -12 -100 -45.5t-38 -87.5q0 -30 10.5 -53t30 -37.5t42.5 -23.5t55 -15zM400 35q54 17 85.5 56.5t31.5 100.5
q0 70 -30.5 106.5t-86.5 52.5v-316z" />
    <glyph glyph-name="percent" unicode="%" horiz-adv-x="853" 
d="M377 541q0 -64 -53 -109.5t-127 -45.5q-84 0 -135 36q-47 34 -11 67q9 8 23 16q10 5 27 9.5t25.5 8t7.5 9.5q-1 7 -15 6.5t-31 -3.5t-33 0q-41 10 -37 51q6 44 59 78q51 33 120 33q49 0 90.5 -21t65.5 -56.5t24 -78.5zM197 393q35 0 61 43.5t26.5 104t-26 104.5t-61.5 44
q-29 0 -53.5 -33t-31.5 -82q-2 -15 15 -22t18 -17q2 -12 -14.5 -25.5t-13.5 -27.5q5 -29 30.5 -59t49.5 -30zM655 296q49 0 90.5 -20.5t65.5 -56.5t24 -78q0 -65 -52.5 -110.5t-127.5 -45.5q-83 0 -135 37q-47 33 -11 66q9 9 24 16q10 5 26.5 9.5t25.5 8.5t8 10q-1 4 -5 5.5
t-10.5 1t-14.5 -1.5t-16.5 -2.5t-17 -1.5t-15.5 2q-42 10 -37 50q5 45 59 79q50 32 119 32zM655 -8q35 0 61.5 44t26.5 104.5t-26.5 104t-61.5 43.5q-29 0 -53.5 -32.5t-31.5 -82.5q-2 -15 15 -21.5t18 -17.5q2 -10 -6 -17.5t-16 -15.5t-6 -19q5 -29 30.5 -59.5t49.5 -30.5z
M597 692h40l-359 -701h-40z" />
    <glyph glyph-name="ampersand" unicode="&#x26;" horiz-adv-x="821" 
d="M577 261l193 -270h-223l-202 281v1q-19 26 -51 36t-64 0q-89 -27 -123 -78q-20 -31 -1 -39l9 -1h220v-200h-310v139q0 41 18.5 76t50 60t66 42t75.5 30q-31 14 -49 39q-12 17 -12 36t5.5 33t4.5 34t-16 41q-1 1 -36 52q-29 41 -13.5 79.5t60.5 38.5h289l-1 -23h-101
q-28 0 -37 -23.5t9 -47.5l41 -59q39 -57 -13 -108q-16 -15 -93 -32q-52 -12 -53 -23q0 -4 4 -8q14 -15 42 -15.5t60 6.5q57 8 92 1q103 -19 159 -98z" />
    <glyph glyph-name="quotesingle" unicode="'" horiz-adv-x="265" 
d="M28 703h208v-153l-69 -146h-68l-27 56l-44 90v153z" />
    <glyph glyph-name="parenleft" unicode="(" horiz-adv-x="470" 
d="M361 665q-24 0 -40.5 -5t-32 -18t-23 -39.5t-7.5 -66.5v-607q0 -40 7.5 -66.5t23 -39.5t32 -18t40.5 -5h58v-26h-73q-62 0 -105 5t-82 20t-62 41.5t-36.5 70t-13.5 104.5v435q0 61 13.5 104.5t36.5 70t62 41.5t82 20t105 5h73v-26h-58z" />
    <glyph glyph-name="parenright" unicode=")" horiz-adv-x="470" 
d="M123 691q44 0 77 -2.5t65.5 -9t55.5 -18t43 -29.5t32 -43.5t19 -60t7 -78.5v-435q0 -61 -13.5 -104.5t-36.5 -70t-62 -41.5t-82 -20t-105 -5h-73v26h58q24 0 40.5 5t32 18t23 39.5t7.5 66.5v607q0 40 -7.5 67t-23 39.5t-32 17.5t-40.5 5h-58v26h73z" />
    <glyph glyph-name="asterisk" unicode="*" horiz-adv-x="358" 
d="M225 523l34 -30l38 -54l-56 -40l-38 53l-25 57l-25 -57l-38 -53l-56 40l38 54l34 30l-48 8l-61 23l24 65l62 -23l49 -32l-15 64v66h69v-65l-14 -68l52 35l62 23l24 -65l-61 -23zM178 540h1l-1 1v-1z" />
    <glyph glyph-name="plus" unicode="+" horiz-adv-x="475" 
d="M465 354v-23h-154q19 -18 20 -45v-178h-142v22v163q0 5 -1 9.5t-3 8t-3.5 5.5t-5.5 4.5t-5.5 4t-6.5 4t-7 2.5h-148v23h129q-2 6 -2 9q0 17 26.5 45.5t26.5 49.5l2 57v56h140l-1 -101q-1 -38 -57 -72q-15 -9 -46.5 -15.5t-52 -12t-19.5 -14.5q2 -9 15.5 -10t40.5 3.5
t41 3.5v1h213z" />
    <glyph glyph-name="comma" unicode="," horiz-adv-x="261" 
d="M25 199h208v-208q0 -29 -22.5 -62.5t-54 -55t-56.5 -21.5l-23 23q18 0 39 13t37 40.5t16 62.5h-44q-27 0 -50 13.5t-36.5 36.5t-13.5 50v108z" />
    <glyph glyph-name="hyphen" unicode="-" horiz-adv-x="512" 
d="M309 386h179v-141h-23l-163 -1q-14 0 -23 -8t-12.5 -18t-12 -18.5t-22.5 -8.5q-16 0 -45 27t-50 27l-57 1h-56v140h101q38 -1 72 -58q9 -15 15.5 -46.5t12 -52t14.5 -19.5q11 2 10 23t-5.5 46.5t0.5 49.5q13 56 65 57z" />
    <glyph glyph-name="period" unicode="." horiz-adv-x="255" 
d="M127 199q43 0 73.5 -30.5t30.5 -73.5t-30.5 -73.5t-73.5 -30.5t-73.5 30.5t-30.5 73.5t30.5 73.5t73.5 30.5z" />
    <glyph glyph-name="slash" unicode="/" horiz-adv-x="681" 
d="M420 691h211l-81 -153q-31 -57 -143 -108q-30 -14 -83 -24t-88.5 -18t-40 -21.5t14.5 -15.5q8 -1 87 8q51 6 74 0q37 -10 45 -36.5t-11 -61.5l-142 -270h-213l18 34l129 247q9 17 7 29t-10.5 17t-17 12.5t-11.5 17t7 29.5q9 17 31.5 35.5t45 32.5t46 34.5t33.5 40.5
l47 86z" />
    <glyph glyph-name="zero" unicode="0" horiz-adv-x="877" 
d="M437 705q83 0 159 -28t131 -75.5t87.5 -113t32.5 -137.5q0 -97 -55 -178.5t-149.5 -129t-205.5 -47.5q-154 0 -270 61q-97 50 -96 111q0 55 86 99q23 12 61 22t58 18.5t18 22.5q-3 16 -35 15t-70.5 -8.5t-74.5 0.5q-76 18 -84 86q-9 71 61 147q92 102 253 128q45 7 93 7z
M437 12q38 0 74.5 26.5t64 71.5t44 108t16.5 131q0 91 -28 169.5t-74 123.5t-97 45q-67 0 -122.5 -75t-71.5 -187q-3 -22 7.5 -34t24.5 -15t27.5 -13t16.5 -28q2 -15 -5 -27t-18 -21t-22 -18.5t-17 -22.5t-3 -30q7 -42 35.5 -89t69.5 -81t78 -34z" />
    <glyph glyph-name="one" unicode="1" horiz-adv-x="463" 
d="M331 373q21 -5 37.5 -14.5t27 -22.5t15.5 -28.5t5 -32.5v-270h-213v34v246q0 22 -12.5 35t-27.5 18t-27.5 18t-12.5 34q0 18 12.5 36.5t27.5 32.5t27.5 34.5t12.5 40.5l2 86v61h-155v24h366v-154q-1 -57 -86 -108q-16 -9 -41 -16.5t-48.5 -12t-45 -9t-33.5 -10.5t-10 -15
q2 -16 34 -15t70.5 8t74.5 0z" />
    <glyph glyph-name="two" unicode="2" 
d="M238 359q-44 -12 -68.5 -33.5t-26 -44t9.5 -43t37.5 -33.5t59.5 -13h449v-186h-665v186q0 87 41.5 128t125.5 60q70 15 123.5 33t95.5 42t64 56t22 70q0 20 -6.5 36t-15 26.5t-25.5 17.5t-30 10.5t-36 5.5t-36 2h-38h-14h-271v25h273h31q63 0 94.5 -0.5t82.5 -4t76.5 -12
t54.5 -23.5t41 -39t12 -58q0 -37 -24 -66.5t-60.5 -47.5t-89 -32.5t-99 -23t-101.5 -19t-87 -19.5z" />
    <glyph glyph-name="three" unicode="3" horiz-adv-x="762" 
d="M496 414q66 0 114.5 -17t74.5 -46t38 -61.5t12 -68.5q0 -216 -347 -216h-338v25l287 -1q110 0 169 43.5t59 114.5q0 38 -26 58.5t-66 26t-81 8t-77.5 13t-50.5 33.5q-11 18 -12.5 35.5t7.5 38t35.5 43.5t70 48.5t64 59t15.5 62t-36 48.5t-82 20l-276 -1v24h457
q40 0 69.5 -15t44 -38t16.5 -50.5t-9 -52.5t-38.5 -45t-66.5 -27q-203 -35 -236 -73q-13 -18 -9 -30.5t17 -12.5q8 0 26 8.5t38 18.5t57 18.5t80 8.5z" />
    <glyph glyph-name="four" unicode="4" horiz-adv-x="717" 
d="M612 534q0 -20 12.5 -40t28 -34t28 -33t12.5 -36q0 -21 -12.5 -34t-27.5 -18t-27.5 -18.5t-12.5 -34.5l-1 -246v-35h-213v270q0 50 39 78h-279q-18 0 -35 2.5t-34.5 9.5t-30.5 18t-21 29t-8 42v250h213v-250q0 -77 100 -77h177h18q22 -1 44.5 -0.5t40 2t28.5 5.5t11 10
q0 12 -14.5 17.5t-38 8t-52 4.5t-57 9t-51.5 19t-37 37.5t-13 62.5v153h211v-85q2 -78 2 -86z" />
    <glyph glyph-name="five" unicode="5" horiz-adv-x="770" 
d="M238 529q0 -50 28 -79.5t73 -41t99 -16.5t108 -12t98.5 -21.5t72.5 -50.5t28 -94q0 -66 -47.5 -115t-120.5 -73t-160.5 -27.5t-166 14t-139 61t-77.5 105.5l24 15q14 -45 54 -80.5t91 -53.5t107 -19.5t102.5 14.5t77 56t30.5 98q0 49 -16.5 83t-44 51t-63.5 26.5
t-75.5 12.5t-79 5t-75.5 8t-63.5 19t-44 40t-16.5 68v7l1 176h625v-26h-430v-150z" />
    <glyph glyph-name="six" unicode="6" horiz-adv-x="850" 
d="M259 384q36 20 80 34t90 20t92.5 4t89.5 -11.5t81 -29t65.5 -45.5t43.5 -64t16 -82q0 -51 -35 -93t-91.5 -67.5t-122 -39.5t-131.5 -14q-154 0 -270 61q-97 50 -96 111q0 55 86 99q23 12 61 22t58 18.5t18 22.5q-3 16 -35 15t-70.5 -8.5t-74.5 0.5q-76 18 -84 86
q-9 71 61 147q92 102 253 128q45 7 93 7q129 0 228.5 -55t144.5 -153l-194 -2q-12 44 -31 80t-42 60.5t-50 38t-56 13.5q-44 0 -84.5 -34t-70 -94t-39.5 -134q-4 -29 16 -41zM437 12q30 0 63 11.5t62.5 32.5t49 58t19.5 82q0 38 -10 73t-35 67.5t-62.5 50.5t-99.5 16
t-139 -31q30 -12 34 -37q2 -18 -7.5 -33t-22 -24t-24 -25t-11.5 -37h1q0 -42 11.5 -77t30 -58t43 -39t49 -23t48.5 -7z" />
    <glyph glyph-name="seven" unicode="7" horiz-adv-x="736" 
d="M654 705q46 0 61.5 -38.5t-13.5 -79.5q-36 -51 -37 -53q-15 -20 -16 -40.5t4.5 -34.5t5.5 -32.5t-12 -35.5q-15 -21 -37.5 -34t-42 -18t-42 -18.5t-37.5 -34.5l-201 -281h-224l193 270q56 78 160 98q29 5 59 2.5t54.5 -7t46.5 -2.5t33 14q13 15 -24 25q-9 3 -32 8
q-69 15 -85 31q-53 51 -14 108l42 58q17 25 8 48t-36 23h-418v24h604z" />
    <glyph glyph-name="eight" unicode="8" horiz-adv-x="838" 
d="M566 383q43 -4 73.5 -9.5t64.5 -17.5t55 -29t35 -46t14 -67q0 -66 -51.5 -115t-130 -73t-172.5 -27.5t-178.5 14t-149 61t-83.5 105.5q-14 40 -6 73.5t34.5 61t64.5 46.5t85 31q-39 3 -66.5 10t-52.5 21.5t-37.5 39t-12.5 60.5q0 54 44.5 95.5t112.5 63t151.5 27.5
t160 -5t139 -42t86.5 -76q16 -42 9.5 -74.5t-35 -58t-67.5 -42.5t-87 -27zM724 576q-29 38 -86 62.5t-120.5 28.5t-121.5 -7t-95.5 -45.5t-37.5 -85.5q0 -58 37.5 -87t107.5 -41q61 -9 126 1.5t114 34t72.5 61t3.5 78.5zM64 229q0 -56 51.5 -101t125.5 -61t147.5 -13
t125 44.5t51.5 110.5q0 88 -55.5 131t-171.5 43q-72 2 -137 -21t-101 -59.5t-36 -73.5z" />
    <glyph glyph-name="nine" unicode="9" horiz-adv-x="850" 
d="M736 364q76 -18 84 -85q9 -72 -61 -148q-92 -101 -253 -127q-45 -8 -93 -8q-129 0 -228.5 55.5t-144.5 152.5l194 2q24 -89 72.5 -140t106.5 -51q67 0 122.5 74.5t71.5 187.5q4 28 -16 41q-48 -28 -109 -43t-122.5 -16.5t-120.5 13t-104.5 41.5t-73.5 73.5t-28 105.5
q0 51 35 93t91 67.5t122 39t132 13.5q154 0 270 -60q97 -51 96 -111q0 -55 -86 -100q-23 -11 -61 -21.5t-58 -19t-18 -21.5q3 -17 35 -15.5t70 8.5t75 -1zM219 506q0 -38 10 -73t35 -67.5t62.5 -50.5t99.5 -16t139 31q-30 12 -34 36q-2 18 7 33t22 24t24 25.5t11 36.5
q0 52 -17 93t-45 64.5t-59 35.5t-61 12q-24 0 -50 -7t-51.5 -22t-46 -36t-33.5 -52t-13 -67z" />
    <glyph glyph-name="colon" unicode=":" horiz-adv-x="275" 
d="M137 289q-43 0 -73.5 30.5t-30.5 74t30.5 74t73.5 30.5t73.5 -30.5t30.5 -74t-30.5 -74t-73.5 -30.5zM137 197q43 0 73.5 -30.5t30.5 -73.5t-30.5 -73.5t-73.5 -30.5t-73.5 30.5t-30.5 73.5t30.5 73.5t73.5 30.5z" />
    <glyph glyph-name="semicolon" unicode=";" horiz-adv-x="280" 
d="M35 89v108h208v-208q0 -44 -47 -91t-86 -47l-23 23q30 0 61 32t31 83h-44q-41 0 -70.5 29.5t-29.5 70.5zM139 289q-43 0 -73.5 30.5t-30.5 74t30.5 74t73.5 30.5t73.5 -30.5t30.5 -74t-30.5 -74t-73.5 -30.5z" />
    <glyph glyph-name="less" unicode="&#x3c;" horiz-adv-x="526" 
d="M266 345q-15 19 -35.5 25t-38.5 -1l-74 -27l374 -154v-124l-464 191v189l166 61q35 12 57 -3t25 -54q5 -57 21 -91t33 -42q11 -5 16.5 0.5t3.5 13.5q-1 3 -11 17t-19.5 39t-9.5 60q0 72 40.5 119t98.5 68l44 16v-124l-18 -7q-32 -12 -48.5 -32t-20 -41.5t-4 -43.5
t-6 -43.5t-20.5 -35.5q-12 -11 -24 -16.5t-25.5 -4.5t-28.5 12t-32 33z" />
    <glyph glyph-name="equal" unicode="=" horiz-adv-x="530" 
d="M318 534h179v-141h-23h-163q-14 0 -23 -8.5t-12.5 -18.5t-12 -18.5t-22.5 -8.5q-16 0 -45 27t-50 27l-57 1h-56v140h101q38 -1 72 -57q9 -16 15.5 -47.5t12 -52t14.5 -18.5q7 1 9 9.5t0.5 21t-3.5 28t-3 31t2 28.5q13 57 65 57zM497 143h-464v141h464v-141z" />
    <glyph glyph-name="greater" unicode="&#x3e;" horiz-adv-x="526" 
d="M331 505l167 -61v-189l-464 -191v124l374 153l-75 28q-17 7 -38 1t-36 -25q-22 -29 -42 -39t-35.5 -5.5t-32.5 20.5q-15 14 -20 35.5t-6 43.5t-4.5 43.5t-20 41.5t-48.5 32l-17 6v125l43 -16q59 -21 99 -68t40 -119q0 -35 -9 -60t-19.5 -39t-10.5 -17q-2 -8 3.5 -13.5
t16.5 -0.5q16 8 32.5 42t21.5 91q3 38 25 53.5t56 3.5z" />
    <glyph glyph-name="question" unicode="?" horiz-adv-x="716" 
d="M50 566q23 45 80.5 76t129 42t149 5t141 -27.5t105 -63t41.5 -95.5q0 -20 -4.5 -36.5t-10.5 -29t-18 -22.5t-22 -17t-28.5 -12t-31 -8t-35.5 -5.5t-35.5 -3.5t-37.5 -2q-8 -1 -11 -1v-127h-196v130q50 5 78 9t63 15t55 28q38 31 38 89q0 51 -35.5 85.5t-89.5 45.5
t-112.5 7t-111.5 -28.5t-81 -62.5zM368 199q43 0 73.5 -30.5t30.5 -73.5t-30.5 -73.5t-73.5 -30.5t-73.5 30.5t-30.5 73.5t30.5 73.5t73.5 30.5z" />
    <glyph glyph-name="at" unicode="@" horiz-adv-x="1094" 
d="M832 -10q14 27 22 54h194q0 -26 -11 -54q-13 -30 -38.5 -59t-64 -55t-84.5 -45.5t-104 -31t-119 -11.5q-146 0 -261 35.5t-187 98t-109.5 144.5t-37.5 177q0 93 41.5 177.5t113 145.5t172 97t214.5 36q187 0 336 -119q109 -86 143 -191q34 -103 -28 -156q-12 -10 -28 -18
q-24 -11 -48.5 -9t-48.5 8t-43 12.5t-31.5 5t-14.5 -14.5q-22 -126 -93 -167q-43 -25 -71 -6q-17 12 -13 34q3 11 8 37q-43 -48 -92.5 -65.5t-92.5 -6t-79.5 43.5t-57 76.5t-20.5 101t25 110.5q24 52 61.5 85.5t77 45t80.5 10t74.5 -15.5t57 -37t30.5 -50l18 85h35l-82 -386
q-8 -36 14 -37q25 0 52 45q26 42 36 104q4 22 16 34.5t26.5 17.5t28 10t21.5 17.5t5 34.5v1q-13 96 -55 172.5t-106.5 120.5t-140.5 44q-63 0 -126.5 -34.5t-112.5 -91.5t-80 -138t-31 -169q0 -50 10 -99t28 -91.5t42 -80t54 -67t63 -51t69 -33t71 -11.5q114 0 205 91
q41 40 67 89zM648 149q16 76 51 236q-6 28 -32.5 50t-64.5 30.5t-78.5 4t-78 -33.5t-58.5 -78q-17 -40 -19 -80t9.5 -72.5t31 -59.5t48.5 -41t59.5 -16.5t65.5 13t66 47.5z" />
    <glyph glyph-name="A" unicode="A" horiz-adv-x="873" 
d="M853 65l23 -65h-187l-9 26q-16 41 -40 65t-49.5 31.5t-55 11t-55 4t-52 9.5t-44.5 28q-17 19 -25 36.5t-6.5 38t18.5 43.5t49 48q28 22 37.5 53.5t-1.5 57.5l-41 112l-232 -563h-186l287 699h285l92 -251q19 -52 -4.5 -85t-80.5 -38q-86 -7 -137.5 -31.5t-63.5 -49.5
q-7 -16 1 -24.5t21 -5.5q5 1 19 11t30.5 20.5t50 19t73.5 8.5q46 0 87 -12t71 -32t55 -47.5t41.5 -56.5t28.5 -61z" />
    <glyph glyph-name="B" unicode="B" horiz-adv-x="791" 
d="M537 409q66 0 115 -17t74.5 -46.5t37.5 -61.5t12 -68q0 -216 -347 -216h-379v699h498q40 0 69.5 -15t44.5 -38t17 -50.5t-9.5 -52.5t-39 -45t-66.5 -27q-203 -36 -236 -73q-13 -18 -9 -30.5t17 -12.5q8 0 26 8.5t38 18.5t57.5 18.5t79.5 8.5zM379 24q109 0 168 43t59 114
q0 39 -26 59.5t-65.5 26t-81 8t-78 12.5t-50.5 33q-11 19 -12.5 36.5t7.5 38t35.5 43.5t70 48.5t64 59t15.5 62t-36 48.5t-82 20h-143v-651z" />
    <glyph glyph-name="C" unicode="C" horiz-adv-x="817" 
d="M425 7q57 0 107.5 56t74.5 146h197q-47 -97 -150 -157.5t-229 -60.5q-154 0 -270 61q-97 50 -96 111q0 55 86 99q23 12 61 22t58 18.5t18 22.5q-3 16 -35 15t-70.5 -8.5t-74.5 0.5q-76 18 -84 85q-9 72 61 148q92 102 253 128q45 7 93 7q127 0 230.5 -61t149.5 -160h-198
q-24 90 -74.5 146.5t-107.5 56.5q-67 0 -122.5 -75t-71.5 -187v-1q-3 -21 7.5 -33t24.5 -15.5t27.5 -13t16.5 -27.5q1 -13 -3.5 -23.5t-13 -18t-18 -16t-17 -16t-11.5 -19.5t-2 -26q16 -60 44.5 -106.5t64.5 -72t74 -25.5z" />
    <glyph glyph-name="D" unicode="D" horiz-adv-x="833" 
d="M404 700q87 0 160 -24t121 -64.5t81.5 -93t41.5 -110.5t1.5 -116t-39.5 -110.5t-80.5 -93t-122 -64.5t-163.5 -24h-308v35l-1 246q1 21 -8 33.5t-21.5 17t-25 8.5t-21.5 14.5t-9 29.5q0 17 11.5 34.5t26 31t29 35t19.5 44.5l2 86v85h306zM404 23q42 0 78 22t59 60
t39.5 87t20 103.5t0.5 109t-19 103.5t-39 87t-59.5 60t-79.5 22h-95v-130q-2 -57 -87 -108q-15 -10 -40.5 -17t-48.5 -11.5t-44.5 -9t-34 -11t-10.5 -15.5q3 -16 34.5 -15t70 8.5t74.5 -0.5q42 -10 63.5 -36t22.5 -62v-247h95z" />
    <glyph glyph-name="E" unicode="E" horiz-adv-x="697" 
d="M423 676q-51 0 -82 -20t-36 -48.5t15.5 -62t64 -59t70 -48.5t35.5 -43.5t7.5 -38t-12.5 -36.5q-14 -23 -50.5 -33t-77.5 -12.5t-81 -8t-66 -26t-26 -59.5q0 -71 59 -114t169 -43l287 1v-25h-338q-347 0 -347 216q0 36 12 68t38 61.5t74.5 46.5t114.5 17q43 0 80 -8.5
t57 -18.5t38 -18.5t26 -8.5q13 0 17 12.5t-9 30.5q-33 38 -236 73q-39 7 -66.5 27t-38.5 45t-9 52.5t16.5 50.5t44 38t69.5 15h457v-24z" />
    <glyph glyph-name="F" unicode="F" horiz-adv-x="706" 
d="M373 676q-52 0 -82.5 -16.5t-35 -41.5t16.5 -55t64 -55q21 -12 50 -27.5t46 -24.5t37.5 -21.5t29.5 -23t15.5 -24.5t2.5 -30.5t-16 -36.5q-14 -22 -51 -32.5t-78 -13t-80.5 -8t-65.5 -26t-26 -59.5v-161v-20h-170v229q0 32 13 62.5t39.5 57.5t75 43.5t111.5 16.5
q43 0 80 -8.5t57 -18.5t38 -18.5t26 -8.5q13 0 17 12.5t-9 30.5q-17 19 -101 43.5t-195 43.5q-39 7 -67.5 26t-41 42.5t-12.5 49.5t13.5 47t42 35t68.5 14h530v-24z" />
    <glyph glyph-name="G" unicode="G" horiz-adv-x="852" 
d="M835 355v-9q0 -75 -26.5 -138.5t-77 -112t-129 -76.5t-177.5 -28q-154 0 -270 61q-97 50 -96 111q0 55 86 99q23 12 61 22t58 18.5t18 22.5q-3 16 -35 15t-70.5 -8.5t-74.5 0.5q-76 18 -84 85q-9 72 61 148q92 102 253 128q45 7 93 7q97 0 176 -28.5t130.5 -78
t78.5 -115.5h-203q-16 60 -44 106t-64 72t-74 26q-67 0 -122.5 -75t-71.5 -187v-1q-3 -21 7.5 -33t24.5 -15.5t27.5 -13t16.5 -27.5q2 -15 -5 -27t-18 -21t-22 -18.5t-17 -22.5t-2 -30q6 -42 35 -89.5t70 -81t77 -33.5q61 0 113 62t74 159q9 40 -17 72t-67 32h-101v23h408z
" />
    <glyph glyph-name="H" unicode="H" horiz-adv-x="822" 
d="M575 700h196v-699h-196v347h-310q39 -27 40 -78v-270h-213v35l-1 246q0 21 -12.5 34.5t-27.5 18.5t-27.5 18t-12.5 34q0 17 12.5 35.5t27.5 32.5t28 34.5t13 40.5l2 86v85h211v-153q-2 -57 -87 -108q-15 -9 -40.5 -16.5t-48.5 -12t-44.5 -9t-33.5 -11t-11 -15.5
q2 -14 24 -15t63 5.5t64 5.5h384v329z" />
    <glyph glyph-name="I" unicode="I" horiz-adv-x="347" 
d="M219 368q17 -4 31 -11t24 -16t17 -20.5t10.5 -24t3.5 -26.5v-270h-213v35l-1 246q0 21 -12.5 34.5t-27.5 18.5t-27.5 18t-12.5 34q0 17 12.5 35.5t27.5 32.5t28 34.5t13 40.5l2 86v85h211v-153q-2 -57 -87 -108q-15 -9 -40.5 -16.5t-48.5 -12t-44.5 -9t-33.5 -11
t-11 -15.5q3 -16 34.5 -15t70 8.5t74.5 -0.5z" />
    <glyph glyph-name="J" unicode="J" horiz-adv-x="691" 
d="M569 368q42 -10 63.5 -36t21.5 -62v-81q0 -52 -27 -90t-76.5 -59t-109 -30.5t-133.5 -9.5q-63 0 -117.5 9.5t-98 29t-68.5 51.5t-25 75h187q0 -56 34 -100.5t89 -44.5q27 0 48.5 7t35 20t23.5 28t15 34.5t7.5 36.5t2.5 35v100q0 21 -12.5 34.5t-27.5 18.5t-27.5 18
t-12.5 34q0 17 12.5 35.5t27.5 32.5t27.5 34.5t12.5 40.5l2 86v85h212l-1 -153q-1 -57 -86 -108q-16 -9 -41 -16.5t-48.5 -12t-44.5 -9t-33.5 -11t-10.5 -15.5q2 -16 34 -15t70.5 8.5t74.5 -0.5z" />
    <glyph glyph-name="K" unicode="K" horiz-adv-x="763" 
d="M234 1h-184v699h184v-699zM736 211v-210h-196v172q-1 40 -17 64.5t-40 32t-53.5 11t-56.5 3.5t-51 9.5t-35 28.5q-12 19 -13.5 36.5t8 37.5t35.5 43t70 49q38 22 58.5 52t21.5 59v101h212l1 -101v-3q0 -51 -39 -84.5t-96 -39.5q-97 -10 -156.5 -30t-78.5 -43
q-14 -18 -10 -30t17 -12q9 0 23.5 8t31.5 18t51.5 18.5t76.5 8.5q48 0 87 -10t64.5 -26.5t43.5 -39t27 -46t12 -49.5q2 -14 2 -28z" />
    <glyph glyph-name="L" unicode="L" horiz-adv-x="634" 
d="M309 23h333v-23h-546v35l-1 246q1 21 -8 33.5t-21.5 17t-25 8.5t-21.5 14.5t-9 29.5q0 17 11.5 34.5t26 31t29 35t19.5 44.5l2 86v85h211v-153q-2 -57 -87 -108q-15 -10 -40.5 -17t-48.5 -11.5t-44.5 -9t-34 -11t-10.5 -15.5q3 -16 34.5 -15t70 8.5t74.5 -0.5
q42 -10 63.5 -36t22.5 -62v-247z" />
    <glyph glyph-name="M" unicode="M" horiz-adv-x="1012" 
d="M967 490v-34v-455h-184v518q0 43 -5.5 74t-13 47t-19 25t-19.5 11t-18 2q-34 0 -49 -20t-12.5 -52.5t9.5 -74t18 -85t12 -84.5t-7.5 -73.5t-41.5 -52.5t-89 -20q-61 0 -102 15.5t-59.5 41.5t-25.5 59.5t-3.5 70.5t9.5 74.5t10.5 71t2.5 59.5t-17.5 41.5t-46.5 15.5
q-45 0 -59.5 -41t-14.5 -157v-466h-192v699h213q51 0 88 -17t57 -45t32 -64.5t14 -75t3.5 -78t1 -72.5t4 -59.5t15.5 -37.5q16 -15 30 -9.5t15 25.5q0 8 -3.5 30t-7 48.5t-7 61t-1 68t9 68t24.5 63t44.5 50.5t69.5 33.5t98 9.5q56 -2 96.5 -17.5t63 -36t35.5 -50t17 -53
t5 -52.5z" />
    <glyph glyph-name="N" unicode="N" horiz-adv-x="829" 
d="M581 700h202v-378v-61t-1.5 -53.5t-4.5 -49t-8 -41t-13 -37t-20 -28t-28 -23.5t-37 -15.5t-47.5 -11t-58.5 -2.5q-60 0 -99.5 14t-56.5 39t-23 58t0 71t13 79t17 80.5t10.5 76.5t-5.5 68q-13 46 -35.5 71.5t-46 27.5t-45 -10t-35 -39.5t-13.5 -62.5v-472h-196v699h196
q47 0 81.5 -14t57 -41.5t36 -59.5t23.5 -76q10 -49 13 -107.5t2 -98t2 -75.5t18.5 -53.5t46.5 -16.5q13 1 23 5.5t15.5 16.5t9 22.5t5 32.5t2 36.5t0.5 43.5v385z" />
    <glyph glyph-name="O" unicode="O" horiz-adv-x="853" 
d="M425 700q111 0 205.5 -47.5t149.5 -129t55 -178t-55 -178t-149.5 -129t-205.5 -47.5q-154 0 -270 61q-97 50 -96 111q0 55 86 99q23 12 61 22t58 18.5t18 22.5q-3 16 -35 15t-70.5 -8.5t-74.5 0.5q-76 18 -84 85q-9 72 61 148q92 102 253 128q45 7 93 7zM425 7
q51 0 97 45t74 123t28 169t-28 169.5t-74 123.5t-97 45q-67 0 -122.5 -75t-71.5 -187v-1q-3 -21 7.5 -33t24.5 -15.5t27.5 -13t16.5 -27.5q2 -15 -5 -27t-18 -21t-22 -18.5t-17 -22.5t-3 -30q7 -42 35.5 -89.5t69.5 -81t78 -33.5z" />
    <glyph glyph-name="P" unicode="P" horiz-adv-x="762" 
d="M505 700q151 0 214 -93q51 -75 21 -168q-31 -93 -125 -140q-88 -43 -204 -28q-116 14 -164 -12v-258h-197v699h364h91zM405 299q90 -10 137 71q42 72 24 163q-19 95 -93 129q-31 14 -70 14h-156v-390q60 24 158 13z" />
    <glyph glyph-name="Q" unicode="Q" horiz-adv-x="853" 
d="M835 346q0 -91 -49 -169t-133.5 -126.5t-186.5 -57.5q14 -12 31.5 -19.5t47 -10t44 -3.5t60 0t57.5 1v-136q-270 0 -282 166q-154 0 -270 61q-97 51 -95 112q1 54 86 98q23 12 61 22t58 18.5t18 22.5q-3 16 -35 15t-70.5 -8.5t-74.5 0.5q-76 18 -84 85q-9 72 61 148
q92 102 253 128q45 7 93 7q111 0 205.5 -47.5t149.5 -129t55 -177.5zM425 7q51 0 97 45t74 123t28 169t-28 169.5t-74 123.5t-97 45q-67 0 -122.5 -75t-71.5 -187v-1q-3 -21 7.5 -33t24.5 -15.5t27.5 -13t16.5 -27.5q2 -15 -5 -27t-18 -21t-22 -18.5t-17 -22.5t-3 -30
q6 -31 24.5 -67t43.5 -66.5t56 -50.5t59 -20z" />
    <glyph glyph-name="R" unicode="R" horiz-adv-x="763" 
d="M735 239q1 -14 1 -28v-210h-196v172q-1 40 -17 64.5t-39.5 32t-53.5 11t-57 3.5t-51 9.5t-35 28.5q-12 19 -13.5 36.5t8 37.5t35.5 43t69.5 48.5t64 59t16 62t-35.5 48t-82 19.5h-123v-675h-176v699h480q55 0 88.5 -12t47.5 -34.5t14 -57.5q0 -51 -38.5 -84.5
t-96.5 -39.5q-97 -10 -156.5 -30t-78.5 -43q-14 -18 -10 -30t17 -12q9 0 23.5 8t31.5 18t51.5 18.5t76.5 8.5q60 0 105 -15t71.5 -40.5t40 -54t18.5 -61.5z" />
    <glyph glyph-name="S" unicode="S" horiz-adv-x="746" 
d="M223 524q0 -50 28 -79.5t73 -41t99 -16.5t108 -12t98.5 -21.5t72.5 -51t28 -94.5q0 -65 -47.5 -114.5t-120.5 -73.5t-160.5 -27.5t-166 14.5t-139 61.5t-77.5 105.5l24 14q14 -44 54 -79.5t91 -53.5t107 -19.5t102.5 14t77 55.5t30.5 99q0 49 -16.5 83t-44 51t-63.5 26.5
t-75.5 12.5t-79 5t-75.5 8t-63.5 19t-44 40t-16.5 68q0 53 41.5 94.5t105 63.5t141 28t149 -5.5t129 -42t80.5 -76.5l-20 -9q-28 39 -81 63.5t-111.5 28t-112.5 -7t-89.5 -45.5t-35.5 -85z" />
    <glyph glyph-name="T" unicode="T" horiz-adv-x="763" 
d="M403 439q-16 -9 -41 -16.5t-48.5 -12t-45 -9t-33.5 -11t-11 -15.5q3 -16 35 -15t70.5 8.5t74.5 -0.5q42 -10 63.5 -36t21.5 -62v-270h-213v35v246q2 21 -10 34.5t-27.5 18.5t-29.5 18t-14 34q0 17 13 35.5t28 32.5t27.5 34.5t12.5 40.5l2 86v62h-288v23h782v-23h-283
v-130q-1 -57 -86 -108z" />
    <glyph glyph-name="U" unicode="U" 
d="M615 368q42 -10 63.5 -36t21.5 -62v-81q0 -52 -27 -90t-76.5 -59t-109 -30.5t-133.5 -9.5q-63 0 -117.5 9.5t-98 29t-68.5 51.5t-25 75v535h187v-535q0 -56 34 -100.5t89 -44.5q32 0 56 10.5t38 26.5t23 38.5t12 42.5t3 43v100q0 21 -12.5 34.5t-27.5 18.5t-27.5 18
t-12.5 34q0 17 12.5 35.5t27.5 32.5t27.5 34.5t12.5 40.5l2 86v85h212l-1 -153q-1 -57 -86 -108q-16 -9 -41 -16.5t-48.5 -12t-44.5 -9t-33.5 -11t-10.5 -15.5q2 -16 34 -15t70.5 8.5t74.5 -0.5z" />
    <glyph glyph-name="V" unicode="V" horiz-adv-x="871" 
d="M688 699h186l-287 -699h-284l-92 251q-19 52 4 85t80 38q46 3 83.5 12.5t61 21.5t37.5 24t19 23q7 16 -1 24.5t-20 5.5q-4 -1 -11.5 -6t-16 -11.5t-23 -14t-30.5 -13.5t-40.5 -10t-52.5 -4q-46 0 -86.5 12t-71 32t-55.5 47.5t-41.5 56.5t-28.5 61l-23 65h187l10 -26
q18 -48 48 -73t63 -30.5t65.5 -6.5t65 -9t53.5 -30q24 -26 30.5 -49t-8.5 -53.5t-58 -63.5q-28 -22 -37 -53.5t1 -57.5l41 -113z" />
    <glyph glyph-name="W" unicode="W" horiz-adv-x="997" 
d="M953 244q0 -27 -1 -34q0 -29 -4 -52.5t-17.5 -53t-35.5 -50t-63 -36t-96 -17.5q-62 -3 -108.5 12t-72.5 41.5t-42 63t-20 73.5t-3 77.5t6 71.5t9 58t4 35q-1 20 -15 25.5t-30 -9.5q-11 -11 -15.5 -37.5t-4 -59.5t-1 -72.5t-3.5 -78t-14.5 -75t-32 -64.5t-57 -44.5
t-89.5 -16.5q-48 0 -84.5 12.5t-58 32.5t-35.5 50.5t-19 60.5t-6 67v1v474h184v-466q0 -112 17 -151t63 -39q28 0 43 12.5t17.5 33.5t0 49.5t-10.5 60t-12 65t-6 65.5t8.5 60t31 49t61.5 33.5t99 12.5q56 0 89 -20t41 -52.5t6.5 -73.5t-13 -84.5t-19.5 -85t-10.5 -74
t12 -52.5t48.5 -20q10 0 18 2t19.5 11t19 25t13 47t5.5 74v518h184v-455z" />
    <glyph glyph-name="X" unicode="X" horiz-adv-x="776" 
d="M395 373q33 0 71 -19.5t73 -51.5t68.5 -70t62.5 -78t50.5 -72t36 -56t16.5 -26h-212l-65 80q-15 20 -16.5 40.5t6 38t14.5 38t10 39t-9 41.5q-20 38 -43 59q3 -27 -29 -66l-219 -270h-213l28 35l199 246q15 17 16 30t-5.5 21t-12.5 15.5t-5 20.5t15 30q15 18 44 36
q9 6 12.5 14t2 16.5t-11.5 15.5t-27 10q-94 15 -159 91l-96 119h211q39 -48 54 -66q10 -13 22.5 -35t24 -51t12.5 -53.5t-11 -42.5q2 1 17.5 9t19.5 10t17 9t18.5 11t15 11t16 13.5t12.5 13.5l141 171h211l-124 -153q-48 -57 -175 -108q-28 -11 -68 -18.5t-70.5 -10
t-56 -8.5t-32.5 -17q-10 -15 17 -17q4 0 91 4q21 2 35 1z" />
    <glyph glyph-name="Y" unicode="Y" 
d="M538 700h187v-181q0 -47 -32.5 -82t-84 -53.5t-120.5 -25.5v-31q-1 -57 -86 -108q-16 -10 -41 -17.5t-48.5 -11.5t-44.5 -9t-33.5 -11t-10.5 -15q2 -16 34 -15t70.5 8.5t74.5 -0.5q42 -10 63.5 -36t21.5 -62v-50h-213v60q0 18 -8.5 29.5t-20 17.5t-23.5 12t-20 17.5
t-8 29t12.5 36t27.5 32.5t27.5 34.5t12.5 40.5v47q-75 4 -132.5 22t-94 54.5t-36.5 86.5v181h187v-181q0 -56 34 -100t88 -45h95q37 1 65.5 23t42.5 54.5t14 67.5v181z" />
    <glyph glyph-name="Z" unicode="Z" horiz-adv-x="725" 
d="M412 270l-176 -247q54 0 121.5 14t125.5 33.5t108.5 39.5t79.5 34l29 14v-158h-693l24 35l175 246q12 17 12.5 30t-7 21t-14.5 15.5t-7 20.5t12 30q15 22 51.5 42t74 42t55.5 47l62 86l45 62q-48 0 -99.5 -8t-95.5 -21.5t-86 -29.5t-74.5 -32t-57 -29t-37.5 -21l-13 -9
v173h690l-109 -153q-42 -57 -163 -108q-27 -11 -66.5 -18.5t-69.5 -10t-55 -8.5t-31 -17q-8 -15 17 -17q6 -1 91 4q45 2 65 -4q35 -10 38 -36.5t-22 -61.5z" />
    <glyph glyph-name="bracketleft" unicode="[" horiz-adv-x="472" 
d="M364 665q-24 0 -40.5 -5t-32 -17.5t-23 -39.5t-7.5 -67v-607q0 -40 7.5 -66.5t23 -39.5t32 -18t40.5 -5h58v-26h-372v917h372v-26h-58z" />
    <glyph glyph-name="backslash" unicode="\" horiz-adv-x="681" 
d="M613 26l18 -35h-213l-142 270q-19 35 -11 61.5t45 36.5q25 7 114 -5q63 -8 63 7q0 3 -1 5q-5 14 -40.5 22t-88.5 18t-83 24q-112 51 -143 108l-81 153h211l45 -85q43 -79 47 -86q11 -20 34 -40.5t45.5 -34.5t45 -32.5t31.5 -36t7 -29t-11 -16.5t-17 -12.5t-11 -17
t7 -29.5z" />
    <glyph glyph-name="bracketright" unicode="]" horiz-adv-x="473" 
d="M50 691h372v-917h-372v26h58q24 0 40.5 5t32 18t23 39.5t7.5 66.5v607q0 40 -7.5 67t-23 39.5t-32 17.5t-40.5 5h-58v26z" />
    <glyph glyph-name="asciicircum" unicode="^" horiz-adv-x="601" 
d="M580 252l16 -43h-125l-6 17q-12 32 -32 49t-42 20.5t-43.5 4t-43 6t-35.5 19.5q-16 17 -20.5 32.5t5.5 35.5t39 43q18 14 24.5 35t-0.5 38l-28 75l-153 -374h-124l191 464h188l62 -167q7 -23 3.5 -40.5t-19.5 -28t-41 -12.5q-57 -5 -91 -21.5t-42 -32.5q-5 -11 0.5 -16.5
t13.5 -3.5q3 0 16.5 10.5t39 19.5t60.5 9q37 0 69.5 -12t55 -32.5t37.5 -44t25 -50.5z" />
    <glyph glyph-name="underscore" unicode="_" horiz-adv-x="0" 
d="M328 -233h-656v96h656v-96z" />
    <glyph glyph-name="grave" unicode="`" horiz-adv-x="206" 
d="M183 589q4 -9 0.5 -14.5t-9 -7.5t-9 -7.5t-0.5 -15.5l12 -34h-77l-25 30q-11 33 22 42q8 2 18 1t20.5 -2t19 -2t14 0t4.5 6q-1 6 -15 10t-37 8.5t-34 8.5q-37 12 -73 62h106q7 -22 8 -24q4 -13 28 -31.5t27 -29.5z" />
    <glyph glyph-name="a" unicode="a" horiz-adv-x="873" 
d="M853 65l23 -65h-187l-9 26q-16 41 -40 65t-49.5 31.5t-55 11t-55 4t-52 9.5t-44.5 28q-17 19 -25 36.5t-6.5 38t18.5 43.5t49 48q28 22 37.5 53.5t-1.5 57.5l-41 112l-232 -563h-186l287 699h285l92 -251q19 -52 -4.5 -85t-80.5 -38q-86 -7 -137.5 -31.5t-63.5 -49.5
q-7 -16 1 -24.5t21 -5.5q5 1 19 11t30.5 20.5t50 19t73.5 8.5q46 0 87 -12t71 -32t55 -47.5t41.5 -56.5t28.5 -61z" />
    <glyph glyph-name="b" unicode="b" horiz-adv-x="791" 
d="M537 409q66 0 115 -17t74.5 -46.5t37.5 -61.5t12 -68q0 -216 -347 -216h-379v699h498q40 0 69.5 -15t44.5 -38t17 -50.5t-9.5 -52.5t-39 -45t-66.5 -27q-203 -36 -236 -73q-13 -18 -9 -30.5t17 -12.5q8 0 26 8.5t38 18.5t57.5 18.5t79.5 8.5zM379 24q109 0 168 43t59 114
q0 39 -26 59.5t-65.5 26t-81 8t-78 12.5t-50.5 33q-11 19 -12.5 36.5t7.5 38t35.5 43.5t70 48.5t64 59t15.5 62t-36 48.5t-82 20h-143v-651z" />
    <glyph glyph-name="c" unicode="c" horiz-adv-x="817" 
d="M425 7q57 0 107.5 56t74.5 146h197q-47 -97 -150 -157.5t-229 -60.5q-154 0 -270 61q-97 50 -96 111q0 55 86 99q23 12 61 22t58 18.5t18 22.5q-3 16 -35 15t-70.5 -8.5t-74.5 0.5q-76 18 -84 85q-9 72 61 148q92 102 253 128q45 7 93 7q127 0 230.5 -61t149.5 -160h-198
q-24 90 -74.5 146.5t-107.5 56.5q-67 0 -122.5 -75t-71.5 -187v-1q-3 -21 7.5 -33t24.5 -15.5t27.5 -13t16.5 -27.5q1 -13 -3.5 -23.5t-13 -18t-18 -16t-17 -16t-11.5 -19.5t-2 -26q16 -60 44.5 -106.5t64.5 -72t74 -25.5z" />
    <glyph glyph-name="d" unicode="d" horiz-adv-x="833" 
d="M404 700q87 0 160 -24t121 -64.5t81.5 -93t41.5 -110.5t1.5 -116t-39.5 -110.5t-80.5 -93t-122 -64.5t-163.5 -24h-308v35l-1 246q1 21 -8 33.5t-21.5 17t-25 8.5t-21.5 14.5t-9 29.5q0 17 11.5 34.5t26 31t29 35t19.5 44.5l2 86v85h306zM404 23q42 0 78 22t59 60
t39.5 87t20 103.5t0.5 109t-19 103.5t-39 87t-59.5 60t-79.5 22h-95v-130q-2 -57 -87 -108q-15 -10 -40.5 -17t-48.5 -11.5t-44.5 -9t-34 -11t-10.5 -15.5q3 -16 34.5 -15t70 8.5t74.5 -0.5q42 -10 63.5 -36t22.5 -62v-247h95z" />
    <glyph glyph-name="e" unicode="e" horiz-adv-x="697" 
d="M423 676q-51 0 -82 -20t-36 -48.5t15.5 -62t64 -59t70 -48.5t35.5 -43.5t7.5 -38t-12.5 -36.5q-14 -23 -50.5 -33t-77.5 -12.5t-81 -8t-66 -26t-26 -59.5q0 -71 59 -114t169 -43l287 1v-25h-338q-347 0 -347 216q0 36 12 68t38 61.5t74.5 46.5t114.5 17q43 0 80 -8.5
t57 -18.5t38 -18.5t26 -8.5q13 0 17 12.5t-9 30.5q-33 38 -236 73q-39 7 -66.5 27t-38.5 45t-9 52.5t16.5 50.5t44 38t69.5 15h457v-24z" />
    <glyph glyph-name="f" unicode="f" horiz-adv-x="706" 
d="M373 676q-52 0 -82.5 -16.5t-35 -41.5t16.5 -55t64 -55q21 -12 50 -27.5t46 -24.5t37.5 -21.5t29.5 -23t15.5 -24.5t2.5 -30.5t-16 -36.5q-14 -22 -51 -32.5t-78 -13t-80.5 -8t-65.5 -26t-26 -59.5v-161v-20h-170v229q0 32 13 62.5t39.5 57.5t75 43.5t111.5 16.5
q43 0 80 -8.5t57 -18.5t38 -18.5t26 -8.5q13 0 17 12.5t-9 30.5q-17 19 -101 43.5t-195 43.5q-39 7 -67.5 26t-41 42.5t-12.5 49.5t13.5 47t42 35t68.5 14h530v-24z" />
    <glyph glyph-name="g" unicode="g" horiz-adv-x="852" 
d="M835 355v-9q0 -75 -26.5 -138.5t-77 -112t-129 -76.5t-177.5 -28q-154 0 -270 61q-97 50 -96 111q0 55 86 99q23 12 61 22t58 18.5t18 22.5q-3 16 -35 15t-70.5 -8.5t-74.5 0.5q-76 18 -84 85q-9 72 61 148q92 102 253 128q45 7 93 7q97 0 176 -28.5t130.5 -78
t78.5 -115.5h-203q-16 60 -44 106t-64 72t-74 26q-67 0 -122.5 -75t-71.5 -187v-1q-3 -21 7.5 -33t24.5 -15.5t27.5 -13t16.5 -27.5q2 -15 -5 -27t-18 -21t-22 -18.5t-17 -22.5t-2 -30q6 -42 35 -89.5t70 -81t77 -33.5q61 0 113 62t74 159q9 40 -17 72t-67 32h-101v23h408z
" />
    <glyph glyph-name="h" unicode="h" horiz-adv-x="822" 
d="M575 700h196v-699h-196v347h-310q39 -27 40 -78v-270h-213v35l-1 246q0 21 -12.5 34.5t-27.5 18.5t-27.5 18t-12.5 34q0 17 12.5 35.5t27.5 32.5t28 34.5t13 40.5l2 86v85h211v-153q-2 -57 -87 -108q-15 -9 -40.5 -16.5t-48.5 -12t-44.5 -9t-33.5 -11t-11 -15.5
q2 -14 24 -15t63 5.5t64 5.5h384v329z" />
    <glyph glyph-name="i" unicode="i" horiz-adv-x="347" 
d="M219 368q17 -4 31 -11t24 -16t17 -20.5t10.5 -24t3.5 -26.5v-270h-213v35l-1 246q0 21 -12.5 34.5t-27.5 18.5t-27.5 18t-12.5 34q0 17 12.5 35.5t27.5 32.5t28 34.5t13 40.5l2 86v85h211v-153q-2 -57 -87 -108q-15 -9 -40.5 -16.5t-48.5 -12t-44.5 -9t-33.5 -11
t-11 -15.5q3 -16 34.5 -15t70 8.5t74.5 -0.5z" />
    <glyph glyph-name="j" unicode="j" horiz-adv-x="691" 
d="M569 368q42 -10 63.5 -36t21.5 -62v-81q0 -52 -27 -90t-76.5 -59t-109 -30.5t-133.5 -9.5q-63 0 -117.5 9.5t-98 29t-68.5 51.5t-25 75h187q0 -56 34 -100.5t89 -44.5q27 0 48.5 7t35 20t23.5 28t15 34.5t7.5 36.5t2.5 35v100q0 21 -12.5 34.5t-27.5 18.5t-27.5 18
t-12.5 34q0 17 12.5 35.5t27.5 32.5t27.5 34.5t12.5 40.5l2 86v85h212l-1 -153q-1 -57 -86 -108q-16 -9 -41 -16.5t-48.5 -12t-44.5 -9t-33.5 -11t-10.5 -15.5q2 -16 34 -15t70.5 8.5t74.5 -0.5z" />
    <glyph glyph-name="k" unicode="k" horiz-adv-x="763" 
d="M234 1h-184v699h184v-699zM736 211v-210h-196v172q-1 40 -17 64.5t-40 32t-53.5 11t-56.5 3.5t-51 9.5t-35 28.5q-12 19 -13.5 36.5t8 37.5t35.5 43t70 49q38 22 58.5 52t21.5 59v101h212l1 -101v-3q0 -51 -39 -84.5t-96 -39.5q-97 -10 -156.5 -30t-78.5 -43
q-14 -18 -10 -30t17 -12q9 0 23.5 8t31.5 18t51.5 18.5t76.5 8.5q48 0 87 -10t64.5 -26.5t43.5 -39t27 -46t12 -49.5q2 -14 2 -28z" />
    <glyph glyph-name="l" unicode="l" horiz-adv-x="634" 
d="M309 23h333v-23h-546v35l-1 246q1 21 -8 33.5t-21.5 17t-25 8.5t-21.5 14.5t-9 29.5q0 17 11.5 34.5t26 31t29 35t19.5 44.5l2 86v85h211v-153q-2 -57 -87 -108q-15 -10 -40.5 -17t-48.5 -11.5t-44.5 -9t-34 -11t-10.5 -15.5q3 -16 34.5 -15t70 8.5t74.5 -0.5
q42 -10 63.5 -36t22.5 -62v-247z" />
    <glyph glyph-name="m" unicode="m" horiz-adv-x="1012" 
d="M967 490v-34v-455h-184v518q0 43 -5.5 74t-13 47t-19 25t-19.5 11t-18 2q-34 0 -49 -20t-12.5 -52.5t9.5 -74t18 -85t12 -84.5t-7.5 -73.5t-41.5 -52.5t-89 -20q-61 0 -102 15.5t-59.5 41.5t-25.5 59.5t-3.5 70.5t9.5 74.5t10.5 71t2.5 59.5t-17.5 41.5t-46.5 15.5
q-45 0 -59.5 -41t-14.5 -157v-466h-192v699h213q51 0 88 -17t57 -45t32 -64.5t14 -75t3.5 -78t1 -72.5t4 -59.5t15.5 -37.5q16 -15 30 -9.5t15 25.5q0 8 -3.5 30t-7 48.5t-7 61t-1 68t9 68t24.5 63t44.5 50.5t69.5 33.5t98 9.5q56 -2 96.5 -17.5t63 -36t35.5 -50t17 -53
t5 -52.5z" />
    <glyph glyph-name="n" unicode="n" horiz-adv-x="829" 
d="M581 700h202v-378v-61t-1.5 -53.5t-4.5 -49t-8 -41t-13 -37t-20 -28t-28 -23.5t-37 -15.5t-47.5 -11t-58.5 -2.5q-60 0 -99.5 14t-56.5 39t-23 58t0 71t13 79t17 80.5t10.5 76.5t-5.5 68q-13 46 -35.5 71.5t-46 27.5t-45 -10t-35 -39.5t-13.5 -62.5v-472h-196v699h196
q47 0 81.5 -14t57 -41.5t36 -59.5t23.5 -76q10 -49 13 -107.5t2 -98t2 -75.5t18.5 -53.5t46.5 -16.5q13 1 23 5.5t15.5 16.5t9 22.5t5 32.5t2 36.5t0.5 43.5v385z" />
    <glyph glyph-name="o" unicode="o" horiz-adv-x="853" 
d="M425 700q111 0 205.5 -47.5t149.5 -129t55 -178t-55 -178t-149.5 -129t-205.5 -47.5q-154 0 -270 61q-97 50 -96 111q0 55 86 99q23 12 61 22t58 18.5t18 22.5q-3 16 -35 15t-70.5 -8.5t-74.5 0.5q-76 18 -84 85q-9 72 61 148q92 102 253 128q45 7 93 7zM425 7
q51 0 97 45t74 123t28 169t-28 169.5t-74 123.5t-97 45q-67 0 -122.5 -75t-71.5 -187v-1q-3 -21 7.5 -33t24.5 -15.5t27.5 -13t16.5 -27.5q2 -15 -5 -27t-18 -21t-22 -18.5t-17 -22.5t-3 -30q7 -42 35.5 -89.5t69.5 -81t78 -33.5z" />
    <glyph glyph-name="p" unicode="p" horiz-adv-x="762" 
d="M505 700q151 0 214 -93q51 -75 21 -168q-31 -93 -125 -140q-88 -43 -204 -28q-116 14 -164 -12v-258h-197v699h364h91zM405 299q90 -10 137 71q42 72 24 163q-19 95 -93 129q-31 14 -70 14h-156v-390q60 24 158 13z" />
    <glyph glyph-name="q" unicode="q" horiz-adv-x="853" 
d="M835 346q0 -91 -49 -169t-133.5 -126.5t-186.5 -57.5q14 -12 31.5 -19.5t47 -10t44 -3.5t60 0t57.5 1v-136q-270 0 -282 166q-154 0 -270 61q-97 51 -95 112q1 54 86 98q23 12 61 22t58 18.5t18 22.5q-3 16 -35 15t-70.5 -8.5t-74.5 0.5q-76 18 -84 85q-9 72 61 148
q92 102 253 128q45 7 93 7q111 0 205.5 -47.5t149.5 -129t55 -177.5zM425 7q51 0 97 45t74 123t28 169t-28 169.5t-74 123.5t-97 45q-67 0 -122.5 -75t-71.5 -187v-1q-3 -21 7.5 -33t24.5 -15.5t27.5 -13t16.5 -27.5q2 -15 -5 -27t-18 -21t-22 -18.5t-17 -22.5t-3 -30
q6 -31 24.5 -67t43.5 -66.5t56 -50.5t59 -20z" />
    <glyph glyph-name="r" unicode="r" horiz-adv-x="763" 
d="M735 239q1 -14 1 -28v-210h-196v172q-1 40 -17 64.5t-39.5 32t-53.5 11t-57 3.5t-51 9.5t-35 28.5q-12 19 -13.5 36.5t8 37.5t35.5 43t69.5 48.5t64 59t16 62t-35.5 48t-82 19.5h-123v-675h-176v699h480q55 0 88.5 -12t47.5 -34.5t14 -57.5q0 -51 -38.5 -84.5
t-96.5 -39.5q-97 -10 -156.5 -30t-78.5 -43q-14 -18 -10 -30t17 -12q9 0 23.5 8t31.5 18t51.5 18.5t76.5 8.5q60 0 105 -15t71.5 -40.5t40 -54t18.5 -61.5z" />
    <glyph glyph-name="s" unicode="s" horiz-adv-x="746" 
d="M223 524q0 -50 28 -79.5t73 -41t99 -16.5t108 -12t98.5 -21.5t72.5 -51t28 -94.5q0 -65 -47.5 -114.5t-120.5 -73.5t-160.5 -27.5t-166 14.5t-139 61.5t-77.5 105.5l24 14q14 -44 54 -79.5t91 -53.5t107 -19.5t102.5 14t77 55.5t30.5 99q0 49 -16.5 83t-44 51t-63.5 26.5
t-75.5 12.5t-79 5t-75.5 8t-63.5 19t-44 40t-16.5 68q0 53 41.5 94.5t105 63.5t141 28t149 -5.5t129 -42t80.5 -76.5l-20 -9q-28 39 -81 63.5t-111.5 28t-112.5 -7t-89.5 -45.5t-35.5 -85z" />
    <glyph glyph-name="t" unicode="t" horiz-adv-x="763" 
d="M403 439q-16 -9 -41 -16.5t-48.5 -12t-45 -9t-33.5 -11t-11 -15.5q3 -16 35 -15t70.5 8.5t74.5 -0.5q42 -10 63.5 -36t21.5 -62v-270h-213v35v246q2 21 -10 34.5t-27.5 18.5t-29.5 18t-14 34q0 17 13 35.5t28 32.5t27.5 34.5t12.5 40.5l2 86v62h-288v23h782v-23h-283
v-130q-1 -57 -86 -108z" />
    <glyph glyph-name="u" unicode="u" 
d="M615 368q42 -10 63.5 -36t21.5 -62v-81q0 -52 -27 -90t-76.5 -59t-109 -30.5t-133.5 -9.5q-63 0 -117.5 9.5t-98 29t-68.5 51.5t-25 75v535h187v-535q0 -56 34 -100.5t89 -44.5q32 0 56 10.5t38 26.5t23 38.5t12 42.5t3 43v100q0 21 -12.5 34.5t-27.5 18.5t-27.5 18
t-12.5 34q0 17 12.5 35.5t27.5 32.5t27.5 34.5t12.5 40.5l2 86v85h212l-1 -153q-1 -57 -86 -108q-16 -9 -41 -16.5t-48.5 -12t-44.5 -9t-33.5 -11t-10.5 -15.5q2 -16 34 -15t70.5 8.5t74.5 -0.5z" />
    <glyph glyph-name="v" unicode="v" horiz-adv-x="871" 
d="M688 699h186l-287 -699h-284l-92 251q-19 52 4 85t80 38q46 3 83.5 12.5t61 21.5t37.5 24t19 23q7 16 -1 24.5t-20 5.5q-4 -1 -11.5 -6t-16 -11.5t-23 -14t-30.5 -13.5t-40.5 -10t-52.5 -4q-46 0 -86.5 12t-71 32t-55.5 47.5t-41.5 56.5t-28.5 61l-23 65h187l10 -26
q18 -48 48 -73t63 -30.5t65.5 -6.5t65 -9t53.5 -30q24 -26 30.5 -49t-8.5 -53.5t-58 -63.5q-28 -22 -37 -53.5t1 -57.5l41 -113z" />
    <glyph glyph-name="w" unicode="w" horiz-adv-x="997" 
d="M953 244q0 -27 -1 -34q0 -29 -4 -52.5t-17.5 -53t-35.5 -50t-63 -36t-96 -17.5q-62 -3 -108.5 12t-72.5 41.5t-42 63t-20 73.5t-3 77.5t6 71.5t9 58t4 35q-1 20 -15 25.5t-30 -9.5q-11 -11 -15.5 -37.5t-4 -59.5t-1 -72.5t-3.5 -78t-14.5 -75t-32 -64.5t-57 -44.5
t-89.5 -16.5q-48 0 -84.5 12.5t-58 32.5t-35.5 50.5t-19 60.5t-6 67v1v474h184v-466q0 -112 17 -151t63 -39q28 0 43 12.5t17.5 33.5t0 49.5t-10.5 60t-12 65t-6 65.5t8.5 60t31 49t61.5 33.5t99 12.5q56 0 89 -20t41 -52.5t6.5 -73.5t-13 -84.5t-19.5 -85t-10.5 -74
t12 -52.5t48.5 -20q10 0 18 2t19.5 11t19 25t13 47t5.5 74v518h184v-455z" />
    <glyph glyph-name="x" unicode="x" horiz-adv-x="776" 
d="M395 373q33 0 71 -19.5t73 -51.5t68.5 -70t62.5 -78t50.5 -72t36 -56t16.5 -26h-212l-65 80q-15 20 -16.5 40.5t6 38t14.5 38t10 39t-9 41.5q-20 38 -43 59q3 -27 -29 -66l-219 -270h-213l28 35l199 246q15 17 16 30t-5.5 21t-12.5 15.5t-5 20.5t15 30q15 18 44 36
q9 6 12.5 14t2 16.5t-11.5 15.5t-27 10q-94 15 -159 91l-96 119h211q39 -48 54 -66q10 -13 22.5 -35t24 -51t12.5 -53.5t-11 -42.5q2 1 17.5 9t19.5 10t17 9t18.5 11t15 11t16 13.5t12.5 13.5l141 171h211l-124 -153q-48 -57 -175 -108q-28 -11 -68 -18.5t-70.5 -10
t-56 -8.5t-32.5 -17q-10 -15 17 -17q4 0 91 4q21 2 35 1z" />
    <glyph glyph-name="y" unicode="y" 
d="M538 700h187v-181q0 -47 -32.5 -82t-84 -53.5t-120.5 -25.5v-31q-1 -57 -86 -108q-16 -10 -41 -17.5t-48.5 -11.5t-44.5 -9t-33.5 -11t-10.5 -15q2 -16 34 -15t70.5 8.5t74.5 -0.5q42 -10 63.5 -36t21.5 -62v-50h-213v60q0 18 -8.5 29.5t-20 17.5t-23.5 12t-20 17.5
t-8 29t12.5 36t27.5 32.5t27.5 34.5t12.5 40.5v47q-75 4 -132.5 22t-94 54.5t-36.5 86.5v181h187v-181q0 -56 34 -100t88 -45h95q37 1 65.5 23t42.5 54.5t14 67.5v181z" />
    <glyph glyph-name="z" unicode="z" horiz-adv-x="725" 
d="M412 270l-176 -247q54 0 121.5 14t125.5 33.5t108.5 39.5t79.5 34l29 14v-158h-693l24 35l175 246q12 17 12.5 30t-7 21t-14.5 15.5t-7 20.5t12 30q15 22 51.5 42t74 42t55.5 47l62 86l45 62q-48 0 -99.5 -8t-95.5 -21.5t-86 -29.5t-74.5 -32t-57 -29t-37.5 -21l-13 -9
v173h690l-109 -153q-42 -57 -163 -108q-27 -11 -66.5 -18.5t-69.5 -10t-55 -8.5t-31 -17q-8 -15 17 -17q6 -1 91 4q45 2 65 -4q35 -10 38 -36.5t-22 -61.5z" />
    <glyph glyph-name="braceleft" unicode="{" horiz-adv-x="520" 
d="M230 313q-15 -9 -40.5 -16.5t-49 -12t-44.5 -9t-33.5 -11t-10.5 -15.5q3 -16 34.5 -15t70 8.5t74.5 -0.5q42 -10 63.5 -36t22.5 -62v-270q0 -28 12 -49.5t28.5 -31.5t33.5 -10h78v-27h-265q-44 1 -72 39.5t-28 78.5v35l-1 246q0 21 -12.5 34.5t-27.5 18.5t-27.5 18
t-12.5 34q0 17 12.5 35.5t27.5 32.5t28 34.5t13 40.5l2 86v85q0 42 23.5 79.5t56.5 37.5h283v-27h-79q-73 0 -73 -90v-153q-2 -57 -87 -108z" />
    <glyph glyph-name="verticalbar" unicode="|" horiz-adv-x="272" 
d="M168 67q56 -14 57 -65v-239h-142v83v163q0 14 -8.5 22.5t-18 12t-18 12t-8.5 22.5q0 17 26.5 46t26.5 49l2 57v444h140v-489q-1 -38 -58 -72q-15 -9 -46.5 -15.5t-52 -12t-19.5 -14.5q2 -10 23 -9.5t46.5 5.5t49.5 0z" />
    <glyph glyph-name="braceright" unicode="}" horiz-adv-x="520" 
d="M416 403q0 -20 12.5 -40.5t27.5 -34.5t27.5 -32.5t12.5 -35.5q0 -21 -12.5 -34t-27.5 -18t-27.5 -18.5t-12.5 -34.5v-246v-35q0 -40 -28.5 -78.5t-72.5 -39.5h-265v27h78q27 0 51 25t24 66v270q0 36 21.5 62t63.5 36q20 5 43 3.5t46.5 -4.5t43 -6t32.5 0.5t14 13.5
q2 9 -10.5 15.5t-33.5 11t-44.5 9t-48.5 12t-41 16.5q-85 51 -86 108v153q0 90 -73 90h-80v27h283q22 0 41.5 -18.5t29.5 -45.5t10 -53v-85q2 -79 2 -86z" />
    <glyph glyph-name="asciitilde" unicode="~" horiz-adv-x="567" 
d="M26 410q35 27 73.5 34.5t74 0.5t72.5 -21t74 -27.5t73 -21t74.5 0t72.5 34.5v-141q-34 -27 -72.5 -35t-74.5 -0.5t-73 21.5t-74 27.5t-72.5 21t-74 0t-73.5 -34.5v141z" />
    <glyph glyph-name="nonbreakingspace" unicode="&#xa0;" horiz-adv-x="420" 
 />
    <glyph glyph-name="exclamdown" unicode="&#xa1;" horiz-adv-x="351" 
d="M253 118q0 -22 12.5 -35t27.5 -18t27.5 -18t12.5 -34q0 -17 -12.5 -36t-27.5 -33t-27.5 -34t-12.5 -41l-1 -31h-212v14q1 57 86 108q16 9 41 16.5t48.5 12t44.5 9t33.5 11t10.5 14.5q-1 8 -8 12t-18.5 4t-25.5 -1.5t-30.5 -4t-33 -4.5t-33.5 -2t-30 4q-42 9 -63.5 35
t-21.5 63v161h213v-172zM142 330q-43 0 -73.5 30.5t-30.5 73.5t30.5 73.5t73.5 30.5t73.5 -30.5t30.5 -73.5t-30.5 -73.5t-73.5 -30.5z" />
    <glyph glyph-name="cent" unicode="&#xa2;" horiz-adv-x="841" 
d="M437 -2q57 0 107.5 56t74.5 146h197q-23 -48 -61.5 -88t-87 -69t-108 -45t-122.5 -16q-42 0 -86 6l-27 -94h-32l28 99q-143 25 -212 90q-70 65 -12 126q22 24 61 44q23 12 61 22t58 18.5t18 22.5q-3 16 -35 15t-70.5 -8.5t-74.5 0.5q-76 18 -84 85q-9 72 61 148
q92 102 253 128q45 7 93 7q36 0 80 -8l21 74h32l-23 -80q92 -22 163 -76.5t107 -130.5h-198q-27 100 -86 157l-171 -602q38 -27 75 -27zM336 48l171 601q-36 24 -70 24q-67 0 -122.5 -75t-71.5 -187v-1q-2 -18 4 -28.5t17 -15.5t22.5 -9t21 -12.5t11.5 -23.5t-5 -27.5
t-18 -21t-22 -18t-17 -23t-3 -29.5h1q25 -96 81 -154z" />
    <glyph glyph-name="sterling" unicode="&#xa3;" horiz-adv-x="966" 
d="M380 93q56 -2 139 -13.5t143.5 -20.5t137.5 -7.5t142 20.5v-79q-65 -20 -141.5 -21.5t-137 7.5t-143 21t-138.5 14h-11h-11q-89 1 -164 -21h-1v156q-3 58 87 104q23 12 61 22t58 18.5t18 21.5q-2 11 -11 17t-26.5 7t-34.5 0.5t-44 -2t-45 -1.5h-15h-39h-154v27h124
q-16 21 -18.5 49.5t8.5 59t33.5 62t58.5 59.5t80.5 50t103 35t122.5 13q127 0 230 -61t150 -160h-198q-24 90 -74.5 146.5t-107.5 56.5q-67 0 -122 -75q-56 -75 -72 -188q-3 -20 5 -30t24 -17h219v-27h-178q4 -7 6 -15q2 -17 -7.5 -31.5t-22.5 -23t-24.5 -22.5t-11.5 -31z
" />
    <glyph glyph-name="currency" unicode="&#xa4;" horiz-adv-x="571" 
d="M459 513q77 -65 77 -157q0 -84 -67 -147l67 -53l-19 -24l-71 58q-70 -52 -162 -52q-101 0 -173 42l-59 -48l-19 24l52 41q-20 17 -25 35t7.5 37t44.5 36q14 7 37.5 13.5t35.5 11.5t11 14q-2 10 -21.5 9t-43 -5.5t-45.5 0.5q-59 14 -52.5 69.5t68.5 101.5l-69 55l19 23
l76 -61q69 38 156 38q83 0 151 -43l82 67l19 -24zM284 148q48 0 85.5 61.5t37.5 146.5q0 55 -17.5 103.5t-45.5 76t-60 27.5q-41 0 -75.5 -46t-44.5 -115q-1 -14 5.5 -21t15 -9t17 -8t9.5 -17q2 -11 -5 -20.5t-15.5 -15t-15 -15.5t-3.5 -22q6 -41 42 -83.5t70 -42.5z" />
    <glyph glyph-name="yen" unicode="&#xa5;" horiz-adv-x="777" 
d="M558 691h187v-181q0 -70 -65.5 -110.5t-171.5 -50.5v-32q0 -22 -15 -45h179v-26h-202q-20 -20 -48 -37q-16 -9 -41 -16.5t-48.5 -12t-45 -9t-33.5 -11t-11 -14.5q3 -17 35 -15.5t70.5 8.5t74.5 0q37 -9 59 -32h190v-26h-172q8 -19 8 -41v-49h-213v60q0 17 -10 30h-180v26
h144q-17 9 -25.5 19.5t-8.5 29.5q0 16 7.5 29.5t26.5 33.5t24 27h-168v26h184q6 15 6 28v47q-75 4 -132.5 22t-94 54t-36.5 87v181h187v-181q0 -56 34 -100t88 -45h95q28 0 51.5 13t38.5 33.5t23.5 46.5t8.5 52v181z" />
    <glyph glyph-name="section" unicode="&#xa7;" horiz-adv-x="766" 
d="M739 326q0 -57 -42 -97.5t-111 -60.5q21 -29 21 -74q0 -54 -39 -94t-98.5 -59.5t-131 -22.5t-136 11.5t-113.5 50t-63 85.5l20 12q11 -36 43.5 -65t74 -44t87.5 -16t84 12t62.5 45.5t24.5 80.5q0 34 -10 61q-7 19 -21 33q-23 25 -61 35t-93 13q-14 2 -41 3q-31 2 -51 5
t-43.5 10t-37 18t-22.5 31t-9 47q0 55 50.5 92.5t129.5 52.5q-47 25 -47 87q0 43 33.5 77t85.5 51.5t115.5 22.5t121.5 -4t105 -34t66 -62l-17 -8q-22 31 -65.5 51.5t-91.5 23.5t-92 -6t-72.5 -37t-28.5 -70q0 -65 61 -90q26 -11 70 -18q19 -3 53 -6t56.5 -5.5t52 -8
t48.5 -15t37 -24t26.5 -37.5t8.5 -53zM507 217q49 38 49 105q0 42 -14 69q-15 20 -37.5 34.5t-49 23.5t-56.5 13q-14 2 -27 3q-47 2 -87 -9t-66 -38.5t-26 -66t20 -62.5t56 -34t73.5 -14t86 -9.5t78.5 -14.5z" />
    <glyph glyph-name="dieresis" unicode="&#xa8;" horiz-adv-x="283" 
d="M63 633q12 0 22.5 -6t17 -16.5t6.5 -22.5q0 -19 -13.5 -32.5t-32.5 -13.5t-32.5 13.5t-13.5 32.5t13.5 32t32.5 13zM220 633q19 0 32.5 -13t13.5 -32t-13.5 -32.5t-32.5 -13.5t-32.5 13.5t-13.5 32.5t13.5 32t32.5 13z" />
    <glyph glyph-name="copyright" unicode="&#xa9;" horiz-adv-x="775" 
d="M394 184q27 0 50 26t35 68h91q-22 -45 -69.5 -73t-106.5 -28q-87 0 -141 37q-50 34 -18 68q10 11 29 21q10 5 28 9.5t27 8.5t8 11q-1 5 -7 6.5t-14.5 0t-19.5 -3t-22 -2t-20 1.5q-44 10 -40 53q6 46 60 82q55 36 130 36q59 0 107 -28.5t70 -74.5h-93q-11 42 -34 68.5
t-50 26.5q-15 0 -30 -9.5t-27 -25.5t-21 -38.5t-13 -48.5q0 -7 2 -12t5.5 -7t8 -4t8.5 -3.5t7.5 -5.5t4.5 -10q1 -10 -7.5 -18t-16.5 -16.5t-6 -20.5q11 -42 34.5 -68.5t50.5 -26.5zM387 694q97 0 178.5 -48t129.5 -129.5t48 -178t-48 -178.5t-129.5 -129.5t-178 -47.5
t-178.5 47.5t-129.5 129.5t-47.5 178q0 72 28 138t76 113.5t113.5 76t137.5 28.5zM387 87q104 0 178 73.5t74 177.5t-74 177.5t-178 73.5t-177.5 -73.5t-73.5 -177.5t73.5 -177.5t177.5 -73.5z" />
    <glyph glyph-name="guillemotleft" unicode="&#xab;" horiz-adv-x="990" 
d="M192 291l-74 -27l374 -154v-124l-464 191v189l166 61q18 6 32 5t24.5 -8t17 -21t8.5 -32q5 -58 21 -92t33 -42q11 -4 16.5 1t3.5 14q-1 2 -11 16t-19.5 39t-9.5 60q0 38 12 70t33 54.5t44 38t50 24.5l43 16v-124l-17 -7q-32 -12 -48.5 -31.5t-20 -41.5t-4 -43.5t-6 -43.5
t-20.5 -36q-12 -11 -24 -16.5t-25.5 -4.5t-28.5 12t-32 33q-15 19 -35.5 25t-38.5 -1zM730 267q-14 19 -35 25t-38 -1l-75 -27l374 -154v-124l-464 191v189l167 61q34 12 56 -3t25 -53q5 -58 21.5 -92t32.5 -42q11 -4 16.5 1t3.5 14q-1 3 -7.5 12.5t-13.5 20.5t-12.5 33
t-5.5 49q0 72 40 119t99 68l43 16v-124l-17 -7q-32 -12 -49 -31.5t-20.5 -41.5t-4 -43.5t-6 -43.5t-19.5 -36q-17 -15 -32.5 -19.5t-35.5 5.5t-43 38z" />
    <glyph glyph-name="softhyphen" unicode="&#xad;" horiz-adv-x="0" 
 />
    <glyph glyph-name="registered" unicode="&#xae;" horiz-adv-x="775" 
d="M444 368q53 0 79 -23t30 -56q1 -7 1 -13v-98h-91v80q-1 27 -16.5 39t-34.5 11.5t-39.5 3t-27.5 15.5q-5 9 -6 17t3.5 17.5t16.5 20.5t33 22q27 16 35 37t-6.5 36t-46.5 15h-57v-314h-82v325h223q26 0 41.5 -5.5t22 -16t6.5 -26.5q0 -24 -18 -39.5t-45 -18.5
q-88 -9 -109 -34q-7 -8 -5 -14t8 -6q4 0 13.5 6.5t28 12.5t43.5 6zM387 694q72 0 138 -28.5t113.5 -76t76 -113.5t28.5 -138q0 -96 -48 -178t-129.5 -129.5t-178 -47.5t-178.5 47.5t-129.5 129.5t-47.5 178q0 72 28 138t76 113.5t113.5 76t137.5 28.5zM387 87
q104 0 178 73.5t74 177.5t-74 177.5t-178 73.5t-177.5 -73.5t-73.5 -177.5t73.5 -177.5t177.5 -73.5z" />
    <glyph glyph-name="degree" unicode="&#xb0;" horiz-adv-x="323" 
d="M160 731q38 0 69.5 -16t50 -43.5t18.5 -59.5q0 -50 -40.5 -84.5t-97.5 -34.5q-67 0 -106 30q-37 29 2 55l10 6q8 4 20.5 7.5t19.5 6t6 7.5t-11.5 5t-23.5 -2.5t-25 -0.5q-35 8 -28 43q8 38 55 63q36 18 81 18zM160 498q27 0 47 33.5t20 79.5q0 31 -9.5 57.5t-25 41.5
t-32.5 15q-22 0 -41 -25t-24 -63q-1 -12 11.5 -17t13.5 -13q2 -9 -10.5 -19.5t-10.5 -20.5q4 -23 23.5 -46t37.5 -23z" />
    <glyph glyph-name="plusminus" unicode="&#xb1;" horiz-adv-x="533" 
d="M329 173h179v-141h-23h-163q-14 0 -23 -8.5t-12.5 -18.5t-12 -18t-22.5 -8q-16 0 -45 26.5t-50 26.5l-57 1h-56v140h101q38 -1 72 -57q9 -16 15.5 -47.5t12 -52t14.5 -18.5q11 1 10 22.5t-5.5 47t0.5 49.5q13 56 65 56zM203 415q0 5 -1 9t-3 7.5t-3.5 6t-5.5 5t-5.5 3.5
t-7 3.5t-6.5 3.5h-148v22h129q-2 6 -2 10q0 16 26.5 45t26.5 50l2 56v57h139v-102q-1 -37 -57 -71q-15 -10 -46.5 -16.5t-52 -12t-19.5 -13.5q2 -10 15.5 -10.5t40.5 3.5t41 4h213v-22h-154q19 -19 19 -45v-179h-141v23v163z" />
    <glyph glyph-name="acute" unicode="&#xb4;" horiz-adv-x="206" 
d="M118 612q-11 -4 -34 -8.5t-37 -9t-15 -9.5q0 -5 5 -6.5t13.5 0t19 2.5t20.5 2t18 -2q33 -8 22 -41l-25 -30h-76l11 34q5 14 -9 23t-9 22q3 11 27 29.5t28 31.5q1 3 9 24h105q-36 -50 -73 -62z" />
    <glyph glyph-name="paragraph" unicode="&#xb6;" horiz-adv-x="800" 
d="M693 439q-15 -9 -46.5 -15.5t-52 -12t-19.5 -14.5q1 -7 9.5 -9t21.5 0t28.5 3.5t30.5 3t29 -1.5q56 -14 57 -65v-496h-142v340v163q0 14 -8.5 22.5t-18 12t-18 12t-8.5 22.5q0 17 26.5 46t26.5 49l2 57v151h-72v-513q-1 -38 -57 -72q-11 -6 -27.5 -10.5t-32 -7.5
t-29.5 -6t-22 -7.5t-8 -10.5q2 -7 10.5 -9t21 0t28 4t31 3t28.5 -2q57 -14 57 -65v-179h-141v23l-1 163q0 14 -8 22.5t-18 12t-18.5 12t-8.5 22.5q0 17 27 46t27 49l1 57v61h-123q-61 0 -110.5 18.5t-80 48.5t-46.5 69t-16 79t16.5 79t47 69t79.5 48.5t110 18.5h594v-23
h-119l-1 -196q0 -38 -57 -72zM276 324h123v383h-123q-30 0 -53.5 -21.5t-35.5 -55t-17 -74.5t0.5 -82t18 -74.5t35.5 -54.5t52 -21z" />
    <glyph glyph-name="cedilla" unicode="&#xb8;" horiz-adv-x="217" 
d="M191 -34q28 -7 19 -35q-10 -32 -52 -47q-22 -8 -46 -8q-31 0 -56 15t-36 39h48q6 -22 18 -36t26 -14q8 0 16 5t14 13.5t11 20.5t7 25q1 9 -8.5 12.5t-10.5 9.5t8 13.5t8 15.5q-6 22 -18.5 36t-26.5 14t-26 -14t-18 -36h-48v119l49 -16v-59q22 9 43 9q55 0 81 -24
q23 -23 -13 -41q-5 -3 -14.5 -5.5t-14 -4.5t-4.5 -6q1 -4 8.5 -3.5t17 2t18.5 0.5z" />
    <glyph glyph-name="guillemotright" unicode="&#xbb;" horiz-adv-x="990" 
d="M796 427l166 -61v-189l-464 -191v124l374 154l-74 27q-18 7 -38.5 1t-35.5 -25q-22 -28 -42.5 -38t-35.5 -5.5t-32 19.5q-15 14 -20.5 36t-6 43.5t-4 43.5t-20 41.5t-48.5 31.5l-18 7v124l44 -16q58 -21 98.5 -68t40.5 -119q0 -35 -9.5 -60t-19.5 -39t-11 -16
q-2 -9 3.5 -14.5t16.5 -0.5q17 8 33 42t21 92q3 38 25 53t57 3zM250 371q3 38 25 53t56 3l167 -62v-188l-464 -191v124l374 154l-75 27q-17 7 -38 1t-35 -25q-23 -28 -43 -38.5t-35.5 -5.5t-32.5 20q-12 12 -18 29.5t-6.5 34.5t-3 37t-7 36.5t-21 32.5t-43.5 26l-17 7v124
l43 -16q59 -21 99 -68t40 -119q0 -35 -9 -60t-19.5 -39t-10.5 -16q-1 -6 0.5 -10t6.5 -6t13 1q7 4 15 13.5t16 25t14 40.5t9 55z" />
    <glyph glyph-name="questiondown" unicode="&#xbf;" horiz-adv-x="477" 
d="M638 -28l20 -9q-23 -45 -80.5 -76t-129 -42t-149 -5t-141 27.5t-105 63t-41.5 94.5q0 21 4.5 37.5t10.5 29t18 22.5t22 17t28.5 12t31 8t35.5 5.5t35.5 3t37.5 2.5q8 0 11 1v127h196v-130q-50 -5 -78 -9t-63 -15t-55 -28q-38 -32 -38 -90q0 -50 35.5 -84.5t89.5 -45.5
t112.5 -7t111.5 28.5t81 62.5zM340 330q-43 0 -73.5 30.5t-30.5 73.5t30.5 73.5t73.5 30.5t73.5 -30.5t30.5 -73.5t-30.5 -73.5t-73.5 -30.5z" />
    <glyph glyph-name="Agrave" unicode="&#xc0;" horiz-adv-x="871" 
d="M852 65l23 -65h-187l-9 26q-19 48 -48.5 73t-62.5 30.5t-65.5 6.5t-65.5 9t-54 30q-17 19 -25 36.5t-6.5 38t18.5 43.5t49 48q28 22 37.5 54t-1.5 57l-41 113l-232 -563h-186l287 698h285l92 -251q19 -51 -4.5 -84.5t-80.5 -38.5q-59 -4 -105 -19t-67.5 -31t-28.5 -31
q-7 -16 1 -24.5t21 -5.5q5 1 19 11t30.5 20.5t50 19.5t73.5 9q57 0 105.5 -18.5t82.5 -49.5t57 -66t38 -76zM386 884q-37 12 -74 62h106q8 -22 8 -24q5 -13 28.5 -31.5t27.5 -29.5q5 -13 -9 -22t-10 -23l12 -34h-77l-24 30q-12 33 21 41q9 3 19 2t20.5 -2t19 -2.5t13.5 0
t4 6.5t-14.5 9.5t-36.5 9t-34 8.5z" />
    <glyph glyph-name="Aacute" unicode="&#xc1;" horiz-adv-x="871" 
d="M852 65l23 -65h-187l-9 26q-19 48 -48.5 73t-62.5 30.5t-66 6.5t-65.5 9t-53.5 30q-11 13 -18.5 24.5t-11.5 24.5t-2 26t9.5 27.5t22 30.5t36.5 33q28 22 37.5 54t-1.5 57l-41 113l-232 -563h-186l287 698h285l92 -251q18 -51 -5 -84.5t-80 -38.5q-86 -7 -137.5 -31.5
t-63.5 -49.5q-7 -16 1 -24t21 -6q5 1 19 11t30.5 20.5t50 19.5t73.5 9q57 0 105.5 -18.5t82.5 -49.5t57 -66t38 -76zM399 816q5 14 -9 23t-9 22q3 11 27 29.5t28 31.5q2 4 9 24h105q-36 -50 -73 -62q-11 -4 -34 -8.5t-36.5 -9t-15.5 -9.5q0 -5 5 -6.5t13.5 0t19 2.5t20.5 2
t18 -1q33 -9 22 -42l-25 -30h-76z" />
    <glyph glyph-name="Acircumflex" unicode="&#xc2;" horiz-adv-x="871" 
d="M852 65l23 -65h-187l-9 26q-19 48 -48.5 73t-62.5 30.5t-65.5 6.5t-65.5 9t-54 30q-17 19 -25 36.5t-6.5 38t18.5 43.5t49 48q28 22 37.5 54t-1.5 57l-41 113l-232 -563h-186l287 698h285l92 -251q19 -51 -4.5 -84.5t-80.5 -38.5q-86 -7 -137.5 -31.5t-63.5 -49.5
q-7 -16 1 -24t21 -6q5 1 19 11t30.5 20.5t50 19.5t73.5 9q57 0 105.5 -18.5t82.5 -49.5t57 -66t38 -76zM411 914l-70 -131h-56l87 163h86l28 -59q5 -12 -2 -19.5t-24 -9.5q-51 -3 -61 -19q-1 -2 -0.5 -4t2.5 -2.5t5 -0.5q1 1 5.5 3t9.5 4.5t15 4.5t22 2q63 0 86 -49l7 -15
h-57l-2 6q-9 18 -26 22.5t-36 5t-28 7.5q-22 19 11 39q18 10 11 26z" />
    <glyph glyph-name="Atilde" unicode="&#xc3;" horiz-adv-x="871" 
d="M852 65l23 -65h-187l-9 26q-19 48 -48.5 73t-62.5 30.5t-65.5 6.5t-65.5 9t-54 30q-17 19 -25 36.5t-6.5 38t18.5 43.5t49 48q28 22 37.5 54t-1.5 57l-41 113l-232 -563h-186l287 698h285l92 -251q19 -51 -4.5 -84.5t-80.5 -38.5q-59 -4 -105 -19t-67.5 -31t-28.5 -31
q-7 -16 1 -24t21 -6q5 1 19 11t30.5 20.5t50 19.5t73.5 9q57 0 105.5 -18.5t82.5 -49.5t57 -66t38 -76zM555 828q-21 -16 -46.5 -16.5t-48.5 8t-46 17.5t-48.5 8t-46.5 -17v63q21 16 46.5 16.5t48.5 -8l46 -17t48.5 -8t46.5 16.5v-63z" />
    <glyph glyph-name="Adieresis" unicode="&#xc4;" horiz-adv-x="871" 
d="M852 65l23 -65h-187l-9 26q-19 48 -48.5 73t-62.5 30.5t-66 6.5t-65.5 9t-53.5 30q-11 13 -18.5 24.5t-11.5 24.5t-2 26t9.5 27.5t22 30.5t36.5 33q28 22 37.5 54t-1.5 57l-41 113l-232 -563h-186l287 698h285l92 -251q18 -51 -5 -84.5t-80 -38.5q-59 -4 -105 -19
t-67.5 -31t-28.5 -31q-7 -16 1 -24t21 -6q5 1 19 11t30.5 20.5t50 19.5t73.5 9q57 0 105.5 -18.5t82.5 -49.5t57 -66t38 -76zM357 814q-19 0 -32.5 13.5t-13.5 32.5t13.5 32t32.5 13t32.5 -13t13.5 -32t-13.5 -32.5t-32.5 -13.5zM514 814q-19 0 -32 13.5t-13 32.5t13 32
t32 13t32.5 -13t13.5 -32t-13.5 -32.5t-32.5 -13.5z" />
    <glyph glyph-name="Aring" unicode="&#xc5;" horiz-adv-x="871" 
d="M852 65l23 -65h-187l-9 26q-19 48 -48.5 73t-62.5 30.5t-66 6.5t-65.5 9t-53.5 30q-11 13 -18.5 24.5t-11.5 24.5t-2 26t9.5 27.5t22 30.5t36.5 33q28 22 37.5 54t-1.5 57l-41 113l-232 -563h-186l287 698h111q-37 9 -48.5 27t18.5 36q5 3 14.5 5.5t14.5 4.5t5 6
q-1 4 -9 3.5t-17.5 -2t-18.5 0.5q-28 6 -20 35q10 32 52 48q22 9 49 9q42 0 72.5 -26t30.5 -63q0 -29 -20 -52t-51 -32h102l92 -251q18 -51 -5 -84.5t-80 -38.5q-59 -4 -105 -19t-67.5 -31t-28.5 -31q-7 -16 1 -24t21 -6q5 1 19 11t30.5 20.5t50 19.5t73.5 9
q57 0 105.5 -18.5t82.5 -49.5t57 -66t38 -76zM440 700q18 4 31 28t13 56q0 34 -15 59t-35 25q-11 0 -21.5 -8.5t-17.5 -23.5t-10 -33v-1q-1 -8 8.5 -12t10.5 -10t-8 -14t-8 -16q2 -14 14.5 -30t25.5 -20h12z" />
    <glyph glyph-name="AE" unicode="&#xc6;" horiz-adv-x="1328" 
d="M1054 676q-52 0 -83 -20t-35.5 -48.5t16 -62t64 -59t70 -48.5t35.5 -43.5t7.5 -38t-12.5 -35.5q-14 -23 -50.5 -33.5t-78 -13t-81 -8t-66 -26t-26.5 -58.5q0 -71 59.5 -114.5t168.5 -43.5l288 1v-25h-338q-88 0 -117 1v-1h-187l-9 26q-19 48 -48.5 73t-62.5 30.5
t-65.5 6.5t-65.5 9t-54 30q-17 19 -25 36.5t-6.5 38t18.5 43.5t49 48q28 22 37.5 54t-1.5 57l-41 113l-232 -563h-186l287 698h285l92 -251q19 -51 -4.5 -84.5t-80.5 -38.5q-59 -4 -105 -19t-67.5 -31t-28.5 -31q-7 -16 1 -24t21 -6q5 1 19 11t30.5 20.5t50 19.5t73.5 9
q43 0 81 -11q15 63 71.5 104t162.5 41q42 0 79 -8.5t57.5 -18.5t38.5 -18.5t26 -8.5q13 0 17 12.5t-9 30.5q-33 38 -236 73q-39 7 -66.5 27t-39 45t-9.5 52.5t17 50.5t44.5 38t68.5 15h458v-24z" />
    <glyph glyph-name="Ccedilla" unicode="&#xc7;" horiz-adv-x="816" 
d="M425 8q57 0 107.5 56t74.5 147h197q-47 -98 -150 -158.5t-229 -60.5q-41 0 -84 6l-1 -48q23 10 44 10q54 0 80 -25q24 -22 -12 -41q-6 -2 -15 -4.5t-14 -5t-4 -5.5q0 -2 3 -3t8 -0.5t10.5 1.5t11 1.5t10.5 -1.5q28 -6 19 -34q-9 -32 -51 -47q-22 -8 -46 -8q-31 0 -56 15
t-36 39h48q4 -15 10.5 -26t15.5 -17.5t18 -6.5q16 0 29.5 18.5t17.5 45.5q1 9 -8 12.5t-10 9.5t8 13.5t7 15.5q-6 22 -18 36t-26 14t-26 -14t-18 -36h-48v99q-140 29 -203 94q-64 67 3 128q21 19 53 35q23 12 61 22t58 18.5t18 22.5q-3 16 -35 15t-70.5 -8.5t-74.5 0.5
q-76 18 -84 86q-9 71 61 147q92 102 253 128q45 7 93 7q127 0 230.5 -61t149.5 -160h-198q-24 90 -74.5 146.5t-107.5 56.5q-44 0 -84.5 -34t-70 -94t-39.5 -134q-3 -22 7.5 -34t24.5 -15.5t27.5 -13t16.5 -27.5q2 -15 -5 -27t-18 -21t-22 -18.5t-17 -22.5t-3 -30
q16 -60 44.5 -106t64.5 -72t74 -26z" />
    <glyph glyph-name="Egrave" unicode="&#xc8;" horiz-adv-x="698" 
d="M423 676q-41 0 -70 -12.5t-39.5 -34t-8 -46t23.5 -50.5t56 -46q43 -26 69.5 -49t35.5 -43.5t7.5 -38t-12.5 -35.5q-14 -23 -50.5 -33.5t-77.5 -13t-81 -8t-66 -26t-26 -59.5q0 -70 59 -113.5t169 -43.5l287 1v-25h-338q-347 0 -347 216q0 36 12 68t38 61.5t74.5 46.5
t114.5 17q43 0 80 -8.5t57 -18.5t38 -18.5t26 -8.5q13 0 17 12.5t-9 30.5q-33 38 -236 73q-39 7 -66.5 27t-38.5 45t-9 52.5t16.5 50.5t44 38t69.5 15h457v-24zM344 884q-37 12 -73 62h106q6 -20 8 -24q4 -13 28 -31.5t28 -29.5q4 -13 -10 -22t-9 -23l12 -34h-77l-25 30
q-11 33 22 41q8 3 18 2t20.5 -2t19 -2.5t14 0t4.5 6t-10.5 8.5t-21.5 6.5t-28 6t-26 6.5z" />
    <glyph glyph-name="Eacute" unicode="&#xc9;" horiz-adv-x="698" 
d="M423 676q-41 0 -70 -12.5t-39.5 -34t-8 -46t23.5 -50.5t56 -46q43 -26 69.5 -49t35.5 -43.5t7.5 -38t-12.5 -35.5q-14 -23 -50.5 -33.5t-77.5 -13t-81 -8t-66 -26t-26 -59.5q0 -70 59 -113.5t169 -43.5l287 1v-25h-338q-347 0 -347 216q0 36 12 68t38 61.5t74.5 46.5
t114.5 17q43 0 80 -8.5t57 -18.5t38 -18.5t26 -8.5q13 0 17 12.5t-9 30.5q-33 38 -236 73q-39 7 -66.5 27t-38.5 45t-9 52.5t16.5 50.5t44 38t69.5 15h457v-24zM368 816q5 14 -9 23t-9 22q4 11 27.5 29.5t28.5 31.5q1 4 8 24h105q-36 -50 -73 -62q-11 -4 -34 -8.5t-36.5 -9
t-14.5 -9.5q-1 -6 7 -7q6 0 25 2q32 5 43 2q34 -9 22 -42l-24 -30h-77z" />
    <glyph glyph-name="Ecircumflex" unicode="&#xca;" horiz-adv-x="698" 
d="M423 676q-41 0 -70 -12.5t-39.5 -34t-8 -46t23.5 -50.5t56 -46q43 -26 69.5 -49t35.5 -43.5t7.5 -38t-12.5 -35.5q-14 -23 -50.5 -33.5t-77.5 -13t-81 -8t-66 -26t-26 -59.5q0 -70 59 -113.5t169 -43.5l287 1v-25h-338q-347 0 -347 216q0 36 12 68t38 61.5t74.5 46.5
t114.5 17q43 0 80 -8.5t57 -18.5t38 -18.5t26 -8.5q13 0 17 12.5t-9 30.5q-33 38 -236 73q-39 7 -66.5 27t-38.5 45t-9 52.5t16.5 50.5t44 38t69.5 15h457v-24zM405 914l-70 -131h-56l87 163h86l28 -59q6 -12 -1 -19.5t-25 -9.5q-51 -3 -60 -19q-3 -3 -0.5 -5t6.5 -2
q1 1 5.5 3t9.5 4.5t15 4.5t23 2q62 0 85 -49l7 -15h-56l-3 6q-9 18 -26 22.5t-36 5t-28 7.5q-22 19 11 39q18 10 11 26z" />
    <glyph glyph-name="Edieresis" unicode="&#xcb;" horiz-adv-x="698" 
d="M423 676q-41 0 -70 -12.5t-39.5 -34t-8 -46t23.5 -50.5t56 -46q43 -26 69.5 -49t35.5 -43.5t7.5 -38t-12.5 -35.5q-14 -23 -50.5 -33.5t-77.5 -13t-81 -8t-66 -26t-26 -59.5q0 -70 59 -113.5t169 -43.5l287 1v-25h-338q-347 0 -347 216q0 36 12 68t38 61.5t74.5 46.5
t114.5 17q43 0 80 -8.5t57 -18.5t38 -18.5t26 -8.5q13 0 17 12.5t-9 30.5q-33 38 -236 73q-33 6 -58.5 21.5t-38 36t-17.5 44t3 45.5t23.5 40.5t42.5 29.5t61 11h457v-24zM319.5 814q-18.5 0 -32 13.5t-13.5 32.5t13.5 32t32 13t32 -13t13.5 -32t-13.5 -32.5t-32 -13.5z
M477 814q-19 0 -32.5 13.5t-13.5 32.5t13.5 32t32.5 13t32.5 -13t13.5 -32t-13.5 -32.5t-32.5 -13.5z" />
    <glyph glyph-name="Igrave" unicode="&#xcc;" horiz-adv-x="347" 
d="M219 368q42 -10 63.5 -36t22.5 -62v-270h-213v35l-1 246q0 21 -12.5 34.5t-27.5 18.5t-27.5 18t-12.5 34q0 17 12.5 35.5t27.5 32.5t28 34.5t13 40.5l2 86v85h211v-153q-2 -57 -87 -108q-15 -9 -40.5 -16.5t-48.5 -12t-44.5 -9t-33.5 -11t-11 -15.5q3 -16 34.5 -15
t70 8.5t74.5 -0.5zM145 884q-37 12 -73 62h106q7 -22 8 -24q5 -13 28.5 -31.5t27.5 -29.5q5 -13 -9 -22t-10 -23l12 -34h-77l-24 30q-12 33 21 41q8 3 18.5 2l21 -2t19 -2.5t13.5 0t4 6t-10.5 8.5t-21 6.5t-28 6t-26.5 6.5z" />
    <glyph glyph-name="Iacute" unicode="&#xcd;" horiz-adv-x="347" 
d="M218 439q-23 -14 -70.5 -24t-78.5 -18t-29 -22q3 -16 34.5 -15t70 8.5t74.5 -0.5q42 -10 63.5 -36t22.5 -62v-270h-213v35l-1 246q0 21 -12.5 34.5t-27.5 18.5t-27.5 18t-12.5 34q0 17 12.5 35.5t27.5 32.5t28 34.5t13 40.5l2 86v85h211v-153q-2 -57 -87 -108zM154 816
q5 14 -9 23t-10 22q4 9 16 19t24 21t16 21q1 4 8 24h106q-36 -50 -73 -62q-11 -4 -34 -8.5t-37 -9t-15 -9.5t4 -6.5t14 0t19.5 2.5t20.5 2t18 -1q33 -9 21 -42l-24 -30h-77z" />
    <glyph glyph-name="Icircumflex" unicode="&#xce;" horiz-adv-x="347" 
d="M218 439q-15 -9 -40.5 -16.5t-48.5 -12t-44.5 -9t-34 -11t-10.5 -15.5q3 -16 34.5 -15t70 8.5t74.5 -0.5q42 -10 63.5 -36t22.5 -62v-270h-213v35l-1 246q0 21 -12.5 34.5t-27.5 18.5t-27.5 18t-12.5 34q0 17 12.5 35.5t27.5 32.5t28 34.5t13 40.5l2 86v85h211v-153
q-2 -57 -87 -108zM199 913l-70 -131h-57l87 163h86l28 -58q3 -7 2.5 -12t-3.5 -8.5t-9.5 -6t-14.5 -2.5q-52 -3 -61 -19q-2 -3 -1 -4.5t3 -2.5t4 0q2 0 6 2.5t9 5t15.5 4.5t22.5 2q63 0 85 -49l8 -15h-57l-3 6q-9 17 -26 21.5t-35.5 5t-28.5 8.5q-22 18 11 38q18 11 11 26z
" />
    <glyph glyph-name="Idieresis" unicode="&#xcf;" horiz-adv-x="348" 
d="M218 439q-15 -9 -40.5 -16.5t-48.5 -12t-44.5 -9t-34 -11t-10.5 -15.5q3 -16 34.5 -15t70 8.5t74.5 -0.5q29 -6 48 -20.5t28.5 -34t9.5 -43.5v-270h-213v35l-1 246q0 21 -12.5 34.5t-27.5 18.5t-27.5 18t-12.5 34q0 17 12.5 35.5t27.5 32.5t28 34.5t13 40.5l2 86v85h211
v-153q-2 -57 -87 -108zM116 814q-19 0 -32.5 13.5t-13.5 32.5t13.5 32t32.5 13t32.5 -13t13.5 -32t-13.5 -32.5t-32.5 -13.5zM273 905q19 0 32.5 -13t13.5 -32t-13.5 -32.5t-32.5 -13.5t-32 13.5t-13 32.5t13 32t32 13z" />
    <glyph glyph-name="Eth" unicode="&#xd0;" horiz-adv-x="858" 
d="M428 701q87 0 160 -24t121 -64.5t81.5 -93t41.5 -110.5t1.5 -116t-39 -110.5t-80.5 -93t-122 -64.5t-164 -24h-308v34l-1 228h-113v25h113q-1 23 -14.5 34.5t-29 14t-28.5 14t-13 33.5q0 15 7.5 28.5t19 25.5t23.5 25t22 30.5t14 36.5l2 86v85h306zM428 23
q63 0 109.5 48.5t68 121.5t22 158t-20.5 157.5t-67.5 121t-111.5 48.5h-95v-130q-1 -57 -87 -108q-15 -10 -40.5 -17.5t-48.5 -11.5t-44.5 -9t-33.5 -11t-11 -15q3 -16 35 -15t70.5 8.5t74.5 -0.5q73 -18 84 -81h179v-25h-178v-240h95z" />
    <glyph glyph-name="Ntilde" unicode="&#xd1;" horiz-adv-x="829" 
d="M581 698h202v-378v-61.5t-1.5 -53.5t-4.5 -49.5t-8 -40.5t-13 -36.5t-20 -28.5t-28 -24t-37 -15t-47.5 -10.5t-58.5 -2.5q-60 0 -99.5 14t-56.5 38.5t-23 58t0 71.5t13 78.5t17 80.5t10.5 77t-5.5 67q-13 46 -35.5 72t-46 27.5t-45 -10t-35 -39.5t-13.5 -62v-472h-196
v699h196q38 0 68 -10t50.5 -26.5t36.5 -41.5t25.5 -52t17.5 -61q10 -49 13 -107.5t2 -98.5t2 -75.5t18.5 -53t46.5 -16.5q13 0 23 5t15.5 16.5t9 22.5t5 32.5t2 36t0.5 44.5v385zM535 828q-22 -16 -47 -16.5t-48 8t-46.5 17.5t-48.5 8t-47 -17v63q22 16 47 16.5t48.5 -8
t46.5 -17t48 -8t47 16.5v-63z" />
    <glyph glyph-name="Ograve" unicode="&#xd2;" horiz-adv-x="853" 
d="M425 700q111 0 205.5 -47.5t149.5 -129t55 -178t-55 -178t-149.5 -129t-205.5 -47.5q-154 0 -270 61q-97 50 -96 111q0 55 86 99q23 12 61 22t58 18.5t18 22.5q-3 16 -35 15t-70.5 -8.5t-74.5 0.5q-76 18 -84 85q-9 72 61 148q92 102 253 128q45 7 93 7zM425 7
q38 0 74.5 26.5t64 71.5t44 108t16.5 131t-16.5 131t-44 108t-64 72t-74.5 27q-44 0 -84.5 -34t-70 -94t-39.5 -134v-1q-2 -17 4 -28t17 -16t22.5 -9t21 -12.5t11.5 -23.5q1 -12 -3.5 -23t-12.5 -18.5t-18 -16t-17.5 -16t-11.5 -19.5t-2 -26q7 -42 35.5 -89.5t69.5 -81
t78 -33.5zM413 884q-37 12 -73 62h106q7 -22 8 -24q3 -8 11.5 -17t17 -15t16.5 -13.5t11 -15.5q5 -13 -9.5 -22t-9.5 -23l12 -34h-77l-24 30q-12 33 21 41q8 3 18.5 2l21 -2t19 -2.5t13.5 0t4 6.5t-14.5 9.5t-36.5 9t-35 8.5z" />
    <glyph glyph-name="Oacute" unicode="&#xd3;" horiz-adv-x="853" 
d="M425 700q111 0 205.5 -47.5t149.5 -129t55 -178t-55 -178t-149.5 -129t-205.5 -47.5q-154 0 -270 61q-97 50 -96 111q0 55 86 99q23 12 61 22t58 18.5t18 22.5q-3 16 -35 15t-70.5 -8.5t-74.5 0.5q-76 18 -84 85q-9 72 61 148q92 102 253 128q45 7 93 7zM425 7
q51 0 97 45t74 123t28 169t-28 169.5t-74 123.5t-97 45q-44 0 -84.5 -34t-70 -94t-39.5 -134v-1q-2 -17 4 -28t17 -16t22.5 -9t21 -12.5t11.5 -23.5q1 -12 -3.5 -23t-12.5 -18.5t-18 -16t-17.5 -16t-11.5 -19.5t-2 -26q7 -42 35.5 -89.5t69.5 -81t78 -33.5zM362 816
q5 14 -9 23t-10 22q4 11 27.5 29.5t28.5 31.5q1 4 8 24h106q-36 -50 -73 -62q-11 -4 -34 -8.5t-37 -9t-15 -9.5t4 -6.5t14 0t19.5 2.5t20.5 2t18 -1q33 -9 21 -42l-24 -30h-77z" />
    <glyph glyph-name="Ocircumflex" unicode="&#xd4;" horiz-adv-x="853" 
d="M425 700q111 0 205.5 -47.5t149.5 -129t55 -178t-55 -178t-149.5 -129t-205.5 -47.5q-154 0 -270 61q-97 50 -96 111q0 55 86 99q23 12 61 22t58 18.5t18 22.5q-3 16 -35 15t-70.5 -8.5t-74.5 0.5q-76 18 -84 85q-9 72 61 148q92 102 253 128q45 7 93 7zM425 7
q38 0 74.5 26.5t64 71.5t44 108t16.5 131t-16.5 131t-44 108t-64 72t-74.5 27q-44 0 -84.5 -34t-70 -94t-39.5 -134v-1q-2 -17 4 -28t17 -16t22.5 -9t21 -12.5t11.5 -23.5q1 -12 -3.5 -23t-12.5 -18.5t-18 -16t-17.5 -16t-11.5 -19.5t-2 -26q7 -42 35.5 -89.5t69.5 -81
t78 -33.5zM397 914l-70 -131h-56l87 163h86l28 -59q2 -6 2 -11t-3.5 -8.5t-10 -6t-14.5 -3.5q-52 -3 -61 -19q-2 -3 0.5 -5t6.5 -2q1 1 5.5 3t9.5 4.5t15 4.5t22 2q63 0 86 -49l7 -15h-57l-3 6q-7 14 -19 20t-24 5.5t-25.5 1.5t-20.5 8q-23 19 11 39q17 10 11 26z" />
    <glyph glyph-name="Otilde" unicode="&#xd5;" horiz-adv-x="853" 
d="M425 700q111 0 205.5 -47.5t149.5 -129t55 -178t-55 -178t-149.5 -129t-205.5 -47.5q-154 0 -270 61q-97 50 -96 111q0 55 86 99q23 12 61 22t58 18.5t18 22.5q-3 16 -35 15t-70.5 -8.5t-74.5 0.5q-76 18 -84 85q-9 72 61 148q92 102 253 128q45 7 93 7zM425 7
q38 0 74.5 26.5t64 71.5t44 108t16.5 131t-16.5 131t-44 108t-64 72t-74.5 27q-44 0 -84.5 -34t-70 -94t-39.5 -134v-1q-2 -17 4 -28t17 -16t22.5 -9t21 -12.5t11.5 -23.5q1 -12 -3.5 -23t-12.5 -18.5t-18 -16t-17.5 -16t-11.5 -19.5t-2 -26q7 -42 35.5 -89.5t69.5 -81
t78 -33.5zM544 828q-22 -16 -47 -16.5t-48 8t-46 17.5t-48.5 8t-46.5 -17v63q21 16 46.5 16.5t48.5 -8l46 -17t48 -8t47 16.5v-63z" />
    <glyph glyph-name="Odieresis" unicode="&#xd6;" horiz-adv-x="853" 
d="M425 700q111 0 205.5 -47.5t149.5 -129t55 -178t-55 -178t-149.5 -129t-205.5 -47.5q-154 0 -270 61q-97 50 -96 111q0 55 86 99q23 12 61 22t58 18.5t18 22.5q-3 16 -35 15t-70.5 -8.5t-74.5 0.5q-76 18 -84 85q-9 72 61 148q92 102 253 128q45 7 93 7zM425 7
q51 0 97 45t74 123t28 169t-28 169.5t-74 123.5t-97 45q-44 0 -84.5 -34t-70 -94t-39.5 -134v-1q-2 -17 4 -28t17 -16t22.5 -9t21 -12.5t11.5 -23.5q1 -12 -3.5 -23t-13 -18.5t-18 -16t-17.5 -16t-11.5 -19.5t-1.5 -26q7 -42 35.5 -89.5t69.5 -81t78 -33.5zM347 814
q-19 0 -32.5 13.5t-13.5 32.5t13.5 32t32.5 13t32.5 -13t13.5 -32t-13.5 -32.5t-32.5 -13.5zM505 814q-19 0 -32.5 13.5t-13.5 32.5t13.5 32t32.5 13t32 -13t13 -32t-13 -32.5t-32 -13.5z" />
    <glyph glyph-name="multiply" unicode="&#xd7;" horiz-adv-x="479" 
d="M242 339l215 -216l-16 -14l-173 172q0 -26 -19 -45l-126 -127l-100 100l16 16l115 116q4 3 6.5 6.5t3 7.5t1 7t-0.5 7.5t-1.5 6.5t-2 7.5t-1.5 6.5l-130 131l16 15l115 -116q4 5 6 8q12 11 51 12.5t54 16.5l41 39l40 40l99 -99l-72 -72q-27 -26 -91 -10q-18 5 -44.5 22.5
t-45 28t-23.5 3.5q-6 -8 3.5 -18t31 -26t31.5 -27z" />
    <glyph glyph-name="Oslash" unicode="&#xd8;" horiz-adv-x="855" 
d="M712 599q58 -49 90.5 -114.5t32.5 -138.5q0 -97 -55 -178.5t-149.5 -129t-205.5 -47.5q-115 0 -216 38l-51 -58l-23 17l46 52q-49 21 -79.5 47.5t-40.5 56t11 60.5t73 58q23 12 61 22t58 18.5t18 22.5q-3 16 -35 15t-70.5 -8.5t-74.5 0.5q-76 18 -84 85q-9 72 61 148
q92 102 253 128q45 7 93 7q150 0 265 -84l64 72l22 -16zM242 211q6 -33 27 -72l328 371q-13 39 -32 70.5t-41 54t-47.5 35t-51.5 12.5q-44 0 -84.5 -34t-70 -94t-39.5 -134v-1q-3 -17 3.5 -28t17.5 -16t22.5 -9t21 -12.5t11.5 -23.5q1 -12 -3.5 -23t-13 -18.5t-18 -16
t-17.5 -16t-11.5 -19.5t-1.5 -26zM425 7q51 0 97 45t74 123t28 169q0 70 -17 136l-323 -366q29 -46 67.5 -76.5t73.5 -30.5z" />
    <glyph glyph-name="Ugrave" unicode="&#xd9;" 
d="M615 368q42 -10 63.5 -36t22.5 -62v-81q0 -52 -27.5 -90t-77 -59t-109 -30.5t-133.5 -9.5q-63 0 -117.5 9.5t-98 29t-68.5 52t-25 74.5v535h187v-535q0 -56 34 -100.5t89 -44.5q27 0 48.5 7t35 20t23.5 28t15 34.5t7.5 36.5t2.5 35v100q0 21 -12.5 34.5t-27.5 18.5
t-27.5 18t-12.5 34q0 17 12.5 35.5t27.5 32.5t27.5 34.5t12.5 40.5l2 86v85h212l-1 -153q-1 -57 -86 -108q-16 -9 -41 -16.5t-48.5 -12t-44.5 -9t-33.5 -11t-10.5 -15.5q2 -16 34 -15t70.5 8.5t74.5 -0.5zM333 884q-36 12 -73 62h106q7 -22 8 -24q5 -13 28.5 -31.5
t27.5 -29.5q5 -13 -9 -22t-10 -23l12 -34h-77l-24 30q-12 33 21 41q8 3 18.5 2l21 -2t19 -2.5t13.5 0t4 6.5t-14.5 9.5t-36.5 9t-35 8.5z" />
    <glyph glyph-name="Uacute" unicode="&#xda;" 
d="M615 368q42 -10 63.5 -36t21.5 -62v-81q0 -52 -27 -90t-76.5 -59t-109 -30.5t-133.5 -9.5q-63 0 -117.5 9.5t-98 29t-68.5 52t-25 74.5v535h187v-535q0 -56 34 -100.5t89 -44.5q27 0 48.5 7t35 20t23.5 28t15 34.5t7.5 36.5t2.5 35v100q0 21 -12.5 34.5t-27.5 18.5
t-27.5 18t-12.5 34q0 17 12.5 35.5t27.5 32.5t27.5 34.5t12.5 40.5l2 86v85h212l-1 -153q-1 -57 -86 -108q-16 -9 -41 -16.5t-48.5 -12t-44.5 -9t-33.5 -11t-10.5 -15.5q2 -16 34 -15t70.5 8.5t74.5 -0.5zM327 816q3 10 -0.5 15.5t-9 7.5t-9 7.5t-0.5 14.5t15.5 19t24.5 21
t16 21q1 4 8 24h106q-37 -50 -73 -62q-10 -3 -26.5 -6.5t-28 -6t-21 -6.5t-10.5 -8q-1 -6 7 -7q6 0 25 2q32 5 44 2q33 -9 21 -42l-24 -30h-77z" />
    <glyph glyph-name="Ucircumflex" unicode="&#xdb;" 
d="M615 368q42 -10 63.5 -36t22.5 -62v-81q0 -52 -27.5 -90t-77 -59t-109 -30.5t-133.5 -9.5q-63 0 -117.5 9.5t-98 28.5t-68.5 51.5t-25 75.5v535h187v-535q0 -56 34 -100.5t89 -44.5q27 0 48.5 7t35 20t23.5 28t15 34.5t7.5 36t2.5 35.5v100q0 21 -12.5 34t-27.5 18.5
t-27.5 18.5t-12.5 34q0 17 12.5 35.5t27.5 32.5t27.5 34.5t12.5 40.5l2 86v85h211v-153q-1 -57 -86 -108q-16 -10 -41 -17t-48.5 -11.5t-44.5 -9t-33.5 -11t-10.5 -15.5q2 -16 34 -15t70.5 8.5t74.5 -0.5zM373 915l-71 -131h-56l87 163h86l28 -59q3 -6 2.5 -11t-4 -8.5
t-9.5 -6t-15 -3.5q-51 -3 -60 -19q-3 -3 -0.5 -5t6.5 -2l6 3l9 4.5t15 4.5t23 2q62 0 85 -49l7 -15h-56l-3 6q-9 18 -26 22.5t-36 5t-28 7.5q-22 19 11 39q18 10 11 26z" />
    <glyph glyph-name="Udieresis" unicode="&#xdc;" 
d="M615 368q14 -3 26.5 -8.5t21.5 -12.5t16 -15.5t12 -18.5t7 -20.5t3 -22.5v-81q0 -52 -27.5 -90t-77 -59t-109 -30.5t-133.5 -9.5q-63 0 -117.5 9.5t-98 28.5t-68.5 51.5t-25 75.5v535h187v-535q0 -56 34 -100.5t89 -44.5q32 0 56 10.5t38 26.5t23 38.5t12 42.5t3 43v100
q0 21 -12.5 34t-27.5 18.5t-27.5 18.5t-12.5 34q0 17 12.5 35.5t27.5 32.5t27.5 34.5t12.5 40.5l2 86v85h212l-1 -153q-1 -57 -86 -108q-16 -10 -41 -17t-48.5 -11.5t-44.5 -9t-33.5 -11t-10.5 -15.5q2 -16 34 -15t70.5 8.5t74.5 -0.5zM294 815q-19 0 -32.5 13.5t-13.5 32.5
t13.5 32t32.5 13t32.5 -13t13.5 -32t-13.5 -32.5t-32.5 -13.5zM451.5 815q-18.5 0 -32 13.5t-13.5 32.5t13.5 32t32 13t32 -13t13.5 -32t-13.5 -32.5t-32 -13.5z" />
    <glyph glyph-name="Yacute" unicode="&#xdd;" 
d="M538 700h187v-181q0 -48 -32.5 -83t-84 -53.5t-120.5 -24.5v-32q-1 -57 -86 -108q-14 -8 -34 -14.5t-39.5 -10t-39.5 -8t-34.5 -8t-23.5 -9.5t-7 -13q2 -16 34 -15t70.5 8t74.5 0q28 -7 47.5 -21.5t28.5 -34t9 -42.5v-50h-213v60q0 18 -8.5 29.5t-20 17.5t-23.5 12
t-20 17.5t-8 29t12.5 36t27.5 32.5t27.5 34.5t12.5 40.5v47q-75 4 -132.5 22t-94 54t-36.5 87v181h187v-181q0 -56 34 -100t88 -45h95q37 1 65.5 22.5t42.5 54.5t14 68v181zM347 817q4 10 0.5 15.5t-9.5 7.5t-9 7.5t0 14.5q4 11 27.5 29.5t28.5 31.5q1 4 8 24h105
q-36 -50 -73 -62q-11 -4 -34 -8.5t-36.5 -9t-14.5 -9.5q-2 -6 7 -7q6 0 24 2q33 5 44 2q34 -9 22 -42l-24 -30h-77z" />
    <glyph glyph-name="Thorn" unicode="&#xde;" horiz-adv-x="741" 
d="M410 567q91 0 161.5 -22t105.5 -57.5t50.5 -78.5t-2.5 -85.5t-55 -78t-105.5 -57.5t-154.5 -22h-104v-166h-213v34l-1 246q0 22 -12.5 35t-27.5 18t-27.5 18t-12.5 34q0 18 12.5 36.5t27.5 32.5t28 34.5t13 40.5l2 86v85h211v-133h104zM410 189q46 0 79 36.5t41.5 88.5
t1.5 104.5t-40 89t-82 36.5h-105q-3 -56 -86 -105q-16 -10 -41 -17.5t-48.5 -11.5t-44.5 -9t-33.5 -11t-10.5 -15q3 -16 34.5 -15t70 8t74.5 0q42 -10 63.5 -36t22.5 -62v-81h104z" />
    <glyph glyph-name="germandbls" unicode="&#xdf;" horiz-adv-x="785" 
d="M531 382q66 0 115 -17.5t75 -46.5t37.5 -61t11.5 -68q0 -216 -347 -216h-96v24l46 -1q109 0 168 43.5t59 114.5q0 25 -10.5 42.5t-29 26t-42.5 14t-49.5 7t-52 4.5t-49 7t-41 13.5t-27.5 24.5q-13 24 -13 48t28 54.5t86 63.5q43 25 63.5 59t16 62.5t-36 48.5t-82.5 20
h-48q-40 0 -67.5 -27.5t-27.5 -67.5v-581h-174v542q0 65 46 110.5t111 45.5h342q29 0 53.5 -8.5t40.5 -22.5t25.5 -33t11 -39t-5.5 -40t-20.5 -37t-36.5 -29.5t-53 -17.5q-203 -36 -235 -74q-14 -17 -10 -29.5t17 -12.5q8 0 26 8.5t38.5 18.5t57.5 18.5t79 8.5z" />
    <glyph glyph-name="agrave" unicode="&#xe0;" horiz-adv-x="871" 
d="M852 65l23 -65h-187l-9 26q-19 48 -48.5 73t-62.5 30.5t-65.5 6.5t-65.5 9t-54 30q-17 19 -25 36.5t-6.5 38t18.5 43.5t49 48q28 22 37.5 54t-1.5 57l-41 113l-232 -563h-186l287 698h285l92 -251q19 -51 -4.5 -84.5t-80.5 -38.5q-59 -4 -105 -19t-67.5 -31t-28.5 -31
q-7 -16 1 -24.5t21 -5.5q5 1 19 11t30.5 20.5t50 19.5t73.5 9q57 0 105.5 -18.5t82.5 -49.5t57 -66t38 -76zM386 884q-37 12 -74 62h106q8 -22 8 -24q5 -13 28.5 -31.5t27.5 -29.5q5 -13 -9 -22t-10 -23l12 -34h-77l-24 30q-12 33 21 41q9 3 19 2t20.5 -2t19 -2.5t13.5 0
t4 6.5t-14.5 9.5t-36.5 9t-34 8.5z" />
    <glyph glyph-name="aacute" unicode="&#xe1;" horiz-adv-x="871" 
d="M852 65l23 -65h-187l-9 26q-19 48 -48.5 73t-62.5 30.5t-66 6.5t-65.5 9t-53.5 30q-11 13 -18.5 24.5t-11.5 24.5t-2 26t9.5 27.5t22 30.5t36.5 33q28 22 37.5 54t-1.5 57l-41 113l-232 -563h-186l287 698h285l92 -251q18 -51 -5 -84.5t-80 -38.5q-86 -7 -137.5 -31.5
t-63.5 -49.5q-7 -16 1 -24t21 -6q5 1 19 11t30.5 20.5t50 19.5t73.5 9q57 0 105.5 -18.5t82.5 -49.5t57 -66t38 -76zM399 816q5 14 -9 23t-9 22q3 11 27 29.5t28 31.5q2 4 9 24h105q-36 -50 -73 -62q-11 -4 -34 -8.5t-36.5 -9t-15.5 -9.5q0 -5 5 -6.5t13.5 0t19 2.5t20.5 2
t18 -1q33 -9 22 -42l-25 -30h-76z" />
    <glyph glyph-name="acircumflex" unicode="&#xe2;" horiz-adv-x="871" 
d="M852 65l23 -65h-187l-9 26q-19 48 -48.5 73t-62.5 30.5t-65.5 6.5t-65.5 9t-54 30q-17 19 -25 36.5t-6.5 38t18.5 43.5t49 48q28 22 37.5 54t-1.5 57l-41 113l-232 -563h-186l287 698h285l92 -251q19 -51 -4.5 -84.5t-80.5 -38.5q-86 -7 -137.5 -31.5t-63.5 -49.5
q-7 -16 1 -24t21 -6q5 1 19 11t30.5 20.5t50 19.5t73.5 9q57 0 105.5 -18.5t82.5 -49.5t57 -66t38 -76zM411 914l-70 -131h-56l87 163h86l28 -59q5 -12 -2 -19.5t-24 -9.5q-51 -3 -61 -19q-1 -2 -0.5 -4t2.5 -2.5t5 -0.5q1 1 5.5 3t9.5 4.5t15 4.5t22 2q63 0 86 -49l7 -15
h-57l-2 6q-9 18 -26 22.5t-36 5t-28 7.5q-22 19 11 39q18 10 11 26z" />
    <glyph glyph-name="atilde" unicode="&#xe3;" horiz-adv-x="871" 
d="M852 65l23 -65h-187l-9 26q-19 48 -48.5 73t-62.5 30.5t-65.5 6.5t-65.5 9t-54 30q-17 19 -25 36.5t-6.5 38t18.5 43.5t49 48q28 22 37.5 54t-1.5 57l-41 113l-232 -563h-186l287 698h285l92 -251q19 -51 -4.5 -84.5t-80.5 -38.5q-59 -4 -105 -19t-67.5 -31t-28.5 -31
q-7 -16 1 -24t21 -6q5 1 19 11t30.5 20.5t50 19.5t73.5 9q57 0 105.5 -18.5t82.5 -49.5t57 -66t38 -76zM555 828q-21 -16 -46.5 -16.5t-48.5 8t-46 17.5t-48.5 8t-46.5 -17v63q21 16 46.5 16.5t48.5 -8l46 -17t48.5 -8t46.5 16.5v-63z" />
    <glyph glyph-name="adieresis" unicode="&#xe4;" horiz-adv-x="871" 
d="M852 65l23 -65h-187l-9 26q-19 48 -48.5 73t-62.5 30.5t-66 6.5t-65.5 9t-53.5 30q-11 13 -18.5 24.5t-11.5 24.5t-2 26t9.5 27.5t22 30.5t36.5 33q28 22 37.5 54t-1.5 57l-41 113l-232 -563h-186l287 698h285l92 -251q18 -51 -5 -84.5t-80 -38.5q-59 -4 -105 -19
t-67.5 -31t-28.5 -31q-7 -16 1 -24t21 -6q5 1 19 11t30.5 20.5t50 19.5t73.5 9q57 0 105.5 -18.5t82.5 -49.5t57 -66t38 -76zM357 814q-19 0 -32.5 13.5t-13.5 32.5t13.5 32t32.5 13t32.5 -13t13.5 -32t-13.5 -32.5t-32.5 -13.5zM514 814q-19 0 -32 13.5t-13 32.5t13 32
t32 13t32.5 -13t13.5 -32t-13.5 -32.5t-32.5 -13.5z" />
    <glyph glyph-name="aring" unicode="&#xe5;" horiz-adv-x="871" 
d="M852 65l23 -65h-187l-9 26q-19 48 -48.5 73t-62.5 30.5t-66 6.5t-65.5 9t-53.5 30q-11 13 -18.5 24.5t-11.5 24.5t-2 26t9.5 27.5t22 30.5t36.5 33q28 22 37.5 54t-1.5 57l-41 113l-232 -563h-186l287 698h111q-37 9 -48.5 27t18.5 36q5 3 14.5 5.5t14.5 4.5t5 6
q-1 4 -9 3.5t-17.5 -2t-18.5 0.5q-28 6 -20 35q10 32 52 48q22 9 49 9q42 0 72.5 -26t30.5 -63q0 -29 -20 -52t-51 -32h102l92 -251q18 -51 -5 -84.5t-80 -38.5q-59 -4 -105 -19t-67.5 -31t-28.5 -31q-7 -16 1 -24t21 -6q5 1 19 11t30.5 20.5t50 19.5t73.5 9
q57 0 105.5 -18.5t82.5 -49.5t57 -66t38 -76zM440 700q18 4 31 28t13 56q0 34 -15 59t-35 25q-11 0 -21.5 -8.5t-17.5 -23.5t-10 -33v-1q-1 -8 8.5 -12t10.5 -10t-8 -14t-8 -16q2 -14 14.5 -30t25.5 -20h12z" />
    <glyph glyph-name="ae" unicode="&#xe6;" horiz-adv-x="1328" 
d="M1054 676q-52 0 -83 -20t-35.5 -48.5t16 -62t64 -59t70 -48.5t35.5 -43.5t7.5 -38t-12.5 -35.5q-14 -23 -50.5 -33.5t-78 -13t-81 -8t-66 -26t-26.5 -58.5q0 -71 59.5 -114.5t168.5 -43.5l288 1v-25h-338q-88 0 -117 1v-1h-187l-9 26q-19 48 -48.5 73t-62.5 30.5
t-65.5 6.5t-65.5 9t-54 30q-17 19 -25 36.5t-6.5 38t18.5 43.5t49 48q28 22 37.5 54t-1.5 57l-41 113l-232 -563h-186l287 698h285l92 -251q19 -51 -4.5 -84.5t-80.5 -38.5q-59 -4 -105 -19t-67.5 -31t-28.5 -31q-7 -16 1 -24t21 -6q5 1 19 11t30.5 20.5t50 19.5t73.5 9
q43 0 81 -11q15 63 71.5 104t162.5 41q42 0 79 -8.5t57.5 -18.5t38.5 -18.5t26 -8.5q13 0 17 12.5t-9 30.5q-33 38 -236 73q-39 7 -66.5 27t-39 45t-9.5 52.5t17 50.5t44.5 38t68.5 15h458v-24z" />
    <glyph glyph-name="ccedilla" unicode="&#xe7;" horiz-adv-x="816" 
d="M425 8q57 0 107.5 56t74.5 147h197q-47 -98 -150 -158.5t-229 -60.5q-41 0 -84 6l-1 -48q23 10 44 10q54 0 80 -25q24 -22 -12 -41q-6 -2 -15 -4.5t-14 -5t-4 -5.5q0 -2 3 -3t8 -0.5t10.5 1.5t11 1.5t10.5 -1.5q28 -6 19 -34q-9 -32 -51 -47q-22 -8 -46 -8q-31 0 -56 15
t-36 39h48q4 -15 10.5 -26t15.5 -17.5t18 -6.5q16 0 29.5 18.5t17.5 45.5q1 9 -8 12.5t-10 9.5t8 13.5t7 15.5q-6 22 -18 36t-26 14t-26 -14t-18 -36h-48v99q-140 29 -203 94q-64 67 3 128q21 19 53 35q23 12 61 22t58 18.5t18 22.5q-3 16 -35 15t-70.5 -8.5t-74.5 0.5
q-76 18 -84 86q-9 71 61 147q92 102 253 128q45 7 93 7q127 0 230.5 -61t149.5 -160h-198q-24 90 -74.5 146.5t-107.5 56.5q-44 0 -84.5 -34t-70 -94t-39.5 -134q-3 -22 7.5 -34t24.5 -15.5t27.5 -13t16.5 -27.5q2 -15 -5 -27t-18 -21t-22 -18.5t-17 -22.5t-3 -30
q16 -60 44.5 -106t64.5 -72t74 -26z" />
    <glyph glyph-name="egrave" unicode="&#xe8;" horiz-adv-x="698" 
d="M423 676q-41 0 -70 -12.5t-39.5 -34t-8 -46t23.5 -50.5t56 -46q43 -26 69.5 -49t35.5 -43.5t7.5 -38t-12.5 -35.5q-14 -23 -50.5 -33.5t-77.5 -13t-81 -8t-66 -26t-26 -59.5q0 -70 59 -113.5t169 -43.5l287 1v-25h-338q-347 0 -347 216q0 36 12 68t38 61.5t74.5 46.5
t114.5 17q43 0 80 -8.5t57 -18.5t38 -18.5t26 -8.5q13 0 17 12.5t-9 30.5q-33 38 -236 73q-39 7 -66.5 27t-38.5 45t-9 52.5t16.5 50.5t44 38t69.5 15h457v-24zM344 884q-37 12 -73 62h106q6 -20 8 -24q4 -13 28 -31.5t28 -29.5q4 -13 -10 -22t-9 -23l12 -34h-77l-25 30
q-11 33 22 41q8 3 18 2t20.5 -2t19 -2.5t14 0t4.5 6t-10.5 8.5t-21.5 6.5t-28 6t-26 6.5z" />
    <glyph glyph-name="eacute" unicode="&#xe9;" horiz-adv-x="698" 
d="M423 676q-41 0 -70 -12.5t-39.5 -34t-8 -46t23.5 -50.5t56 -46q43 -26 69.5 -49t35.5 -43.5t7.5 -38t-12.5 -35.5q-14 -23 -50.5 -33.5t-77.5 -13t-81 -8t-66 -26t-26 -59.5q0 -70 59 -113.5t169 -43.5l287 1v-25h-338q-347 0 -347 216q0 36 12 68t38 61.5t74.5 46.5
t114.5 17q43 0 80 -8.5t57 -18.5t38 -18.5t26 -8.5q13 0 17 12.5t-9 30.5q-33 38 -236 73q-39 7 -66.5 27t-38.5 45t-9 52.5t16.5 50.5t44 38t69.5 15h457v-24zM368 816q5 14 -9 23t-9 22q4 11 27.5 29.5t28.5 31.5q1 4 8 24h105q-36 -50 -73 -62q-11 -4 -34 -8.5t-36.5 -9
t-14.5 -9.5q-1 -6 7 -7q6 0 25 2q32 5 43 2q34 -9 22 -42l-24 -30h-77z" />
    <glyph glyph-name="ecircumflex" unicode="&#xea;" horiz-adv-x="698" 
d="M423 676q-41 0 -70 -12.5t-39.5 -34t-8 -46t23.5 -50.5t56 -46q43 -26 69.5 -49t35.5 -43.5t7.5 -38t-12.5 -35.5q-14 -23 -50.5 -33.5t-77.5 -13t-81 -8t-66 -26t-26 -59.5q0 -70 59 -113.5t169 -43.5l287 1v-25h-338q-347 0 -347 216q0 36 12 68t38 61.5t74.5 46.5
t114.5 17q43 0 80 -8.5t57 -18.5t38 -18.5t26 -8.5q13 0 17 12.5t-9 30.5q-33 38 -236 73q-39 7 -66.5 27t-38.5 45t-9 52.5t16.5 50.5t44 38t69.5 15h457v-24zM405 914l-70 -131h-56l87 163h86l28 -59q6 -12 -1 -19.5t-25 -9.5q-51 -3 -60 -19q-3 -3 -0.5 -5t6.5 -2
q1 1 5.5 3t9.5 4.5t15 4.5t23 2q62 0 85 -49l7 -15h-56l-3 6q-9 18 -26 22.5t-36 5t-28 7.5q-22 19 11 39q18 10 11 26z" />
    <glyph glyph-name="edieresis" unicode="&#xeb;" horiz-adv-x="698" 
d="M423 676q-41 0 -70 -12.5t-39.5 -34t-8 -46t23.5 -50.5t56 -46q43 -26 69.5 -49t35.5 -43.5t7.5 -38t-12.5 -35.5q-14 -23 -50.5 -33.5t-77.5 -13t-81 -8t-66 -26t-26 -59.5q0 -70 59 -113.5t169 -43.5l287 1v-25h-338q-347 0 -347 216q0 36 12 68t38 61.5t74.5 46.5
t114.5 17q43 0 80 -8.5t57 -18.5t38 -18.5t26 -8.5q13 0 17 12.5t-9 30.5q-33 38 -236 73q-33 6 -58.5 21.5t-38 36t-17.5 44t3 45.5t23.5 40.5t42.5 29.5t61 11h457v-24zM319.5 814q-18.5 0 -32 13.5t-13.5 32.5t13.5 32t32 13t32 -13t13.5 -32t-13.5 -32.5t-32 -13.5z
M477 814q-19 0 -32.5 13.5t-13.5 32.5t13.5 32t32.5 13t32.5 -13t13.5 -32t-13.5 -32.5t-32.5 -13.5z" />
    <glyph glyph-name="igrave" unicode="&#xec;" horiz-adv-x="347" 
d="M219 368q42 -10 63.5 -36t22.5 -62v-270h-213v35l-1 246q0 21 -12.5 34.5t-27.5 18.5t-27.5 18t-12.5 34q0 17 12.5 35.5t27.5 32.5t28 34.5t13 40.5l2 86v85h211v-153q-2 -57 -87 -108q-15 -9 -40.5 -16.5t-48.5 -12t-44.5 -9t-33.5 -11t-11 -15.5q3 -16 34.5 -15
t70 8.5t74.5 -0.5zM145 884q-37 12 -73 62h106q7 -22 8 -24q5 -13 28.5 -31.5t27.5 -29.5q5 -13 -9 -22t-10 -23l12 -34h-77l-24 30q-12 33 21 41q8 3 18.5 2l21 -2t19 -2.5t13.5 0t4 6t-10.5 8.5t-21 6.5t-28 6t-26.5 6.5z" />
    <glyph glyph-name="iacute" unicode="&#xed;" horiz-adv-x="347" 
d="M218 439q-23 -14 -70.5 -24t-78.5 -18t-29 -22q3 -16 34.5 -15t70 8.5t74.5 -0.5q42 -10 63.5 -36t22.5 -62v-270h-213v35l-1 246q0 21 -12.5 34.5t-27.5 18.5t-27.5 18t-12.5 34q0 17 12.5 35.5t27.5 32.5t28 34.5t13 40.5l2 86v85h211v-153q-2 -57 -87 -108zM154 816
q5 14 -9 23t-10 22q4 9 16 19t24 21t16 21q1 4 8 24h106q-36 -50 -73 -62q-11 -4 -34 -8.5t-37 -9t-15 -9.5t4 -6.5t14 0t19.5 2.5t20.5 2t18 -1q33 -9 21 -42l-24 -30h-77z" />
    <glyph glyph-name="icircumflex" unicode="&#xee;" horiz-adv-x="347" 
d="M218 439q-15 -9 -40.5 -16.5t-48.5 -12t-44.5 -9t-34 -11t-10.5 -15.5q3 -16 34.5 -15t70 8.5t74.5 -0.5q42 -10 63.5 -36t22.5 -62v-270h-213v35l-1 246q0 21 -12.5 34.5t-27.5 18.5t-27.5 18t-12.5 34q0 17 12.5 35.5t27.5 32.5t28 34.5t13 40.5l2 86v85h211v-153
q-2 -57 -87 -108zM199 913l-70 -131h-57l87 163h86l28 -58q3 -7 2.5 -12t-3.5 -8.5t-9.5 -6t-14.5 -2.5q-52 -3 -61 -19q-2 -3 -1 -4.5t3 -2.5t4 0q2 0 6 2.5t9 5t15.5 4.5t22.5 2q63 0 85 -49l8 -15h-57l-3 6q-9 17 -26 21.5t-35.5 5t-28.5 8.5q-22 18 11 38q18 11 11 26z
" />
    <glyph glyph-name="idieresis" unicode="&#xef;" horiz-adv-x="348" 
d="M218 439q-15 -9 -40.5 -16.5t-48.5 -12t-44.5 -9t-34 -11t-10.5 -15.5q3 -16 34.5 -15t70 8.5t74.5 -0.5q29 -6 48 -20.5t28.5 -34t9.5 -43.5v-270h-213v35l-1 246q0 21 -12.5 34.5t-27.5 18.5t-27.5 18t-12.5 34q0 17 12.5 35.5t27.5 32.5t28 34.5t13 40.5l2 86v85h211
v-153q-2 -57 -87 -108zM116 814q-19 0 -32.5 13.5t-13.5 32.5t13.5 32t32.5 13t32.5 -13t13.5 -32t-13.5 -32.5t-32.5 -13.5zM273 905q19 0 32.5 -13t13.5 -32t-13.5 -32.5t-32.5 -13.5t-32 13.5t-13 32.5t13 32t32 13z" />
    <glyph glyph-name="eth" unicode="&#xf0;" horiz-adv-x="858" 
d="M428 701q87 0 160 -24t121 -64.5t81.5 -93t41.5 -110.5t1.5 -116t-39 -110.5t-80.5 -93t-122 -64.5t-164 -24h-308v34l-1 228h-113v25h113q-1 23 -14.5 34.5t-29 14t-28.5 14t-13 33.5q0 15 7.5 28.5t19 25.5t23.5 25t22 30.5t14 36.5l2 86v85h306zM428 23
q63 0 109.5 48.5t68 121.5t22 158t-20.5 157.5t-67.5 121t-111.5 48.5h-95v-130q-1 -57 -87 -108q-15 -10 -40.5 -17.5t-48.5 -11.5t-44.5 -9t-33.5 -11t-11 -15q3 -16 35 -15t70.5 8.5t74.5 -0.5q73 -18 84 -81h179v-25h-178v-240h95z" />
    <glyph glyph-name="ntilde" unicode="&#xf1;" horiz-adv-x="829" 
d="M581 698h202v-378v-61.5t-1.5 -53.5t-4.5 -49.5t-8 -40.5t-13 -36.5t-20 -28.5t-28 -24t-37 -15t-47.5 -10.5t-58.5 -2.5q-60 0 -99.5 14t-56.5 38.5t-23 58t0 71.5t13 78.5t17 80.5t10.5 77t-5.5 67q-13 46 -35.5 72t-46 27.5t-45 -10t-35 -39.5t-13.5 -62v-472h-196
v699h196q38 0 68 -10t50.5 -26.5t36.5 -41.5t25.5 -52t17.5 -61q10 -49 13 -107.5t2 -98.5t2 -75.5t18.5 -53t46.5 -16.5q13 0 23 5t15.5 16.5t9 22.5t5 32.5t2 36t0.5 44.5v385zM535 828q-22 -16 -47 -16.5t-48 8t-46.5 17.5t-48.5 8t-47 -17v63q22 16 47 16.5t48.5 -8
t46.5 -17t48 -8t47 16.5v-63z" />
    <glyph glyph-name="ograve" unicode="&#xf2;" horiz-adv-x="853" 
d="M425 700q111 0 205.5 -47.5t149.5 -129t55 -178t-55 -178t-149.5 -129t-205.5 -47.5q-154 0 -270 61q-97 50 -96 111q0 55 86 99q23 12 61 22t58 18.5t18 22.5q-3 16 -35 15t-70.5 -8.5t-74.5 0.5q-76 18 -84 85q-9 72 61 148q92 102 253 128q45 7 93 7zM425 7
q38 0 74.5 26.5t64 71.5t44 108t16.5 131t-16.5 131t-44 108t-64 72t-74.5 27q-44 0 -84.5 -34t-70 -94t-39.5 -134v-1q-2 -17 4 -28t17 -16t22.5 -9t21 -12.5t11.5 -23.5q1 -12 -3.5 -23t-12.5 -18.5t-18 -16t-17.5 -16t-11.5 -19.5t-2 -26q7 -42 35.5 -89.5t69.5 -81
t78 -33.5zM413 884q-37 12 -73 62h106q7 -22 8 -24q3 -8 11.5 -17t17 -15t16.5 -13.5t11 -15.5q5 -13 -9.5 -22t-9.5 -23l12 -34h-77l-24 30q-12 33 21 41q8 3 18.5 2l21 -2t19 -2.5t13.5 0t4 6.5t-14.5 9.5t-36.5 9t-35 8.5z" />
    <glyph glyph-name="oacute" unicode="&#xf3;" horiz-adv-x="853" 
d="M425 700q111 0 205.5 -47.5t149.5 -129t55 -178t-55 -178t-149.5 -129t-205.5 -47.5q-154 0 -270 61q-97 50 -96 111q0 55 86 99q23 12 61 22t58 18.5t18 22.5q-3 16 -35 15t-70.5 -8.5t-74.5 0.5q-76 18 -84 85q-9 72 61 148q92 102 253 128q45 7 93 7zM425 7
q51 0 97 45t74 123t28 169t-28 169.5t-74 123.5t-97 45q-44 0 -84.5 -34t-70 -94t-39.5 -134v-1q-2 -17 4 -28t17 -16t22.5 -9t21 -12.5t11.5 -23.5q1 -12 -3.5 -23t-12.5 -18.5t-18 -16t-17.5 -16t-11.5 -19.5t-2 -26q7 -42 35.5 -89.5t69.5 -81t78 -33.5zM362 816
q5 14 -9 23t-10 22q4 11 27.5 29.5t28.5 31.5q1 4 8 24h106q-36 -50 -73 -62q-11 -4 -34 -8.5t-37 -9t-15 -9.5t4 -6.5t14 0t19.5 2.5t20.5 2t18 -1q33 -9 21 -42l-24 -30h-77z" />
    <glyph glyph-name="ocircumflex" unicode="&#xf4;" horiz-adv-x="853" 
d="M425 700q111 0 205.5 -47.5t149.5 -129t55 -178t-55 -178t-149.5 -129t-205.5 -47.5q-154 0 -270 61q-97 50 -96 111q0 55 86 99q23 12 61 22t58 18.5t18 22.5q-3 16 -35 15t-70.5 -8.5t-74.5 0.5q-76 18 -84 85q-9 72 61 148q92 102 253 128q45 7 93 7zM425 7
q38 0 74.5 26.5t64 71.5t44 108t16.5 131t-16.5 131t-44 108t-64 72t-74.5 27q-44 0 -84.5 -34t-70 -94t-39.5 -134v-1q-2 -17 4 -28t17 -16t22.5 -9t21 -12.5t11.5 -23.5q1 -12 -3.5 -23t-12.5 -18.5t-18 -16t-17.5 -16t-11.5 -19.5t-2 -26q7 -42 35.5 -89.5t69.5 -81
t78 -33.5zM397 914l-70 -131h-56l87 163h86l28 -59q2 -6 2 -11t-3.5 -8.5t-10 -6t-14.5 -3.5q-52 -3 -61 -19q-2 -3 0.5 -5t6.5 -2q1 1 5.5 3t9.5 4.5t15 4.5t22 2q63 0 86 -49l7 -15h-57l-3 6q-7 14 -19 20t-24 5.5t-25.5 1.5t-20.5 8q-23 19 11 39q17 10 11 26z" />
    <glyph glyph-name="otilde" unicode="&#xf5;" horiz-adv-x="853" 
d="M425 700q111 0 205.5 -47.5t149.5 -129t55 -178t-55 -178t-149.5 -129t-205.5 -47.5q-154 0 -270 61q-97 50 -96 111q0 55 86 99q23 12 61 22t58 18.5t18 22.5q-3 16 -35 15t-70.5 -8.5t-74.5 0.5q-76 18 -84 85q-9 72 61 148q92 102 253 128q45 7 93 7zM425 7
q38 0 74.5 26.5t64 71.5t44 108t16.5 131t-16.5 131t-44 108t-64 72t-74.5 27q-44 0 -84.5 -34t-70 -94t-39.5 -134v-1q-2 -17 4 -28t17 -16t22.5 -9t21 -12.5t11.5 -23.5q1 -12 -3.5 -23t-12.5 -18.5t-18 -16t-17.5 -16t-11.5 -19.5t-2 -26q7 -42 35.5 -89.5t69.5 -81
t78 -33.5zM544 828q-22 -16 -47 -16.5t-48 8t-46 17.5t-48.5 8t-46.5 -17v63q21 16 46.5 16.5t48.5 -8l46 -17t48 -8t47 16.5v-63z" />
    <glyph glyph-name="odieresis" unicode="&#xf6;" horiz-adv-x="853" 
d="M425 700q111 0 205.5 -47.5t149.5 -129t55 -178t-55 -178t-149.5 -129t-205.5 -47.5q-154 0 -270 61q-97 50 -96 111q0 55 86 99q23 12 61 22t58 18.5t18 22.5q-3 16 -35 15t-70.5 -8.5t-74.5 0.5q-76 18 -84 85q-9 72 61 148q92 102 253 128q45 7 93 7zM425 7
q51 0 97 45t74 123t28 169t-28 169.5t-74 123.5t-97 45q-44 0 -84.5 -34t-70 -94t-39.5 -134v-1q-2 -17 4 -28t17 -16t22.5 -9t21 -12.5t11.5 -23.5q1 -12 -3.5 -23t-13 -18.5t-18 -16t-17.5 -16t-11.5 -19.5t-1.5 -26q7 -42 35.5 -89.5t69.5 -81t78 -33.5zM347 814
q-19 0 -32.5 13.5t-13.5 32.5t13.5 32t32.5 13t32.5 -13t13.5 -32t-13.5 -32.5t-32.5 -13.5zM505 814q-19 0 -32.5 13.5t-13.5 32.5t13.5 32t32.5 13t32 -13t13 -32t-13 -32.5t-32 -13.5z" />
    <glyph glyph-name="divide" unicode="&#xf7;" horiz-adv-x="508" 
d="M307 401h179v-141h-23h-163q-12 0 -19.5 -5.5t-11.5 -13.5t-8 -15.5t-11.5 -13t-19.5 -5.5q-16 0 -45 26.5t-50 26.5l-57 1h-56v140h101q38 -1 72 -57q9 -15 15.5 -46.5t12 -52t14.5 -19.5q7 1 9 9.5t0.5 21.5t-3.5 28.5t-3 30.5t2 29q13 56 65 56zM255.5 437
q-22.5 0 -38.5 16t-16 39t16 39t38.5 16t39 -16t16.5 -39t-16.5 -39t-39 -16zM256 162q15 0 27.5 -7.5t20 -20t7.5 -27.5q0 -23 -16.5 -39t-39 -16t-38.5 16t-16 38.5t16 39t39 16.5z" />
    <glyph glyph-name="oslash" unicode="&#xf8;" horiz-adv-x="855" 
d="M712 599q58 -49 90.5 -114.5t32.5 -138.5q0 -97 -55 -178.5t-149.5 -129t-205.5 -47.5q-115 0 -216 38l-51 -58l-23 17l46 52q-49 21 -79.5 47.5t-40.5 56t11 60.5t73 58q23 12 61 22t58 18.5t18 22.5q-3 16 -35 15t-70.5 -8.5t-74.5 0.5q-76 18 -84 85q-9 72 61 148
q92 102 253 128q45 7 93 7q150 0 265 -84l64 72l22 -16zM242 211q6 -33 27 -72l328 371q-13 39 -32 70.5t-41 54t-47.5 35t-51.5 12.5q-44 0 -84.5 -34t-70 -94t-39.5 -134v-1q-3 -17 3.5 -28t17.5 -16t22.5 -9t21 -12.5t11.5 -23.5q1 -12 -3.5 -23t-13 -18.5t-18 -16
t-17.5 -16t-11.5 -19.5t-1.5 -26zM425 7q51 0 97 45t74 123t28 169q0 70 -17 136l-323 -366q29 -46 67.5 -76.5t73.5 -30.5z" />
    <glyph glyph-name="ugrave" unicode="&#xf9;" 
d="M615 368q42 -10 63.5 -36t22.5 -62v-81q0 -52 -27.5 -90t-77 -59t-109 -30.5t-133.5 -9.5q-63 0 -117.5 9.5t-98 29t-68.5 52t-25 74.5v535h187v-535q0 -56 34 -100.5t89 -44.5q27 0 48.5 7t35 20t23.5 28t15 34.5t7.5 36.5t2.5 35v100q0 21 -12.5 34.5t-27.5 18.5
t-27.5 18t-12.5 34q0 17 12.5 35.5t27.5 32.5t27.5 34.5t12.5 40.5l2 86v85h212l-1 -153q-1 -57 -86 -108q-16 -9 -41 -16.5t-48.5 -12t-44.5 -9t-33.5 -11t-10.5 -15.5q2 -16 34 -15t70.5 8.5t74.5 -0.5zM333 884q-36 12 -73 62h106q7 -22 8 -24q5 -13 28.5 -31.5
t27.5 -29.5q5 -13 -9 -22t-10 -23l12 -34h-77l-24 30q-12 33 21 41q8 3 18.5 2l21 -2t19 -2.5t13.5 0t4 6.5t-14.5 9.5t-36.5 9t-35 8.5z" />
    <glyph glyph-name="uacute" unicode="&#xfa;" 
d="M615 368q42 -10 63.5 -36t21.5 -62v-81q0 -52 -27 -90t-76.5 -59t-109 -30.5t-133.5 -9.5q-63 0 -117.5 9.5t-98 29t-68.5 52t-25 74.5v535h187v-535q0 -56 34 -100.5t89 -44.5q27 0 48.5 7t35 20t23.5 28t15 34.5t7.5 36.5t2.5 35v100q0 21 -12.5 34.5t-27.5 18.5
t-27.5 18t-12.5 34q0 17 12.5 35.5t27.5 32.5t27.5 34.5t12.5 40.5l2 86v85h212l-1 -153q-1 -57 -86 -108q-16 -9 -41 -16.5t-48.5 -12t-44.5 -9t-33.5 -11t-10.5 -15.5q2 -16 34 -15t70.5 8.5t74.5 -0.5zM327 816q3 10 -0.5 15.5t-9 7.5t-9 7.5t-0.5 14.5t15.5 19t24.5 21
t16 21q1 4 8 24h106q-37 -50 -73 -62q-10 -3 -26.5 -6.5t-28 -6t-21 -6.5t-10.5 -8q-1 -6 7 -7q6 0 25 2q32 5 44 2q33 -9 21 -42l-24 -30h-77z" />
    <glyph glyph-name="ucircumflex" unicode="&#xfb;" 
d="M615 368q42 -10 63.5 -36t22.5 -62v-81q0 -52 -27.5 -90t-77 -59t-109 -30.5t-133.5 -9.5q-63 0 -117.5 9.5t-98 28.5t-68.5 51.5t-25 75.5v535h187v-535q0 -56 34 -100.5t89 -44.5q27 0 48.5 7t35 20t23.5 28t15 34.5t7.5 36t2.5 35.5v100q0 21 -12.5 34t-27.5 18.5
t-27.5 18.5t-12.5 34q0 17 12.5 35.5t27.5 32.5t27.5 34.5t12.5 40.5l2 86v85h211v-153q-1 -57 -86 -108q-16 -10 -41 -17t-48.5 -11.5t-44.5 -9t-33.5 -11t-10.5 -15.5q2 -16 34 -15t70.5 8.5t74.5 -0.5zM373 915l-71 -131h-56l87 163h86l28 -59q3 -6 2.5 -11t-4 -8.5
t-9.5 -6t-15 -3.5q-51 -3 -60 -19q-3 -3 -0.5 -5t6.5 -2l6 3l9 4.5t15 4.5t23 2q62 0 85 -49l7 -15h-56l-3 6q-9 18 -26 22.5t-36 5t-28 7.5q-22 19 11 39q18 10 11 26z" />
    <glyph glyph-name="udieresis" unicode="&#xfc;" 
d="M615 368q14 -3 26.5 -8.5t21.5 -12.5t16 -15.5t12 -18.5t7 -20.5t3 -22.5v-81q0 -52 -27.5 -90t-77 -59t-109 -30.5t-133.5 -9.5q-63 0 -117.5 9.5t-98 28.5t-68.5 51.5t-25 75.5v535h187v-535q0 -56 34 -100.5t89 -44.5q32 0 56 10.5t38 26.5t23 38.5t12 42.5t3 43v100
q0 21 -12.5 34t-27.5 18.5t-27.5 18.5t-12.5 34q0 17 12.5 35.5t27.5 32.5t27.5 34.5t12.5 40.5l2 86v85h212l-1 -153q-1 -57 -86 -108q-16 -10 -41 -17t-48.5 -11.5t-44.5 -9t-33.5 -11t-10.5 -15.5q2 -16 34 -15t70.5 8.5t74.5 -0.5zM294 815q-19 0 -32.5 13.5t-13.5 32.5
t13.5 32t32.5 13t32.5 -13t13.5 -32t-13.5 -32.5t-32.5 -13.5zM451.5 815q-18.5 0 -32 13.5t-13.5 32.5t13.5 32t32 13t32 -13t13.5 -32t-13.5 -32.5t-32 -13.5z" />
    <glyph glyph-name="yacute" unicode="&#xfd;" 
d="M538 700h187v-181q0 -48 -32.5 -83t-84 -53.5t-120.5 -24.5v-32q-1 -57 -86 -108q-14 -8 -34 -14.5t-39.5 -10t-39.5 -8t-34.5 -8t-23.5 -9.5t-7 -13q2 -16 34 -15t70.5 8t74.5 0q28 -7 47.5 -21.5t28.5 -34t9 -42.5v-50h-213v60q0 18 -8.5 29.5t-20 17.5t-23.5 12
t-20 17.5t-8 29t12.5 36t27.5 32.5t27.5 34.5t12.5 40.5v47q-75 4 -132.5 22t-94 54t-36.5 87v181h187v-181q0 -56 34 -100t88 -45h95q37 1 65.5 22.5t42.5 54.5t14 68v181zM347 817q4 10 0.5 15.5t-9.5 7.5t-9 7.5t0 14.5q4 11 27.5 29.5t28.5 31.5q1 4 8 24h105
q-36 -50 -73 -62q-11 -4 -34 -8.5t-36.5 -9t-14.5 -9.5q-2 -6 7 -7q6 0 24 2q33 5 44 2q34 -9 22 -42l-24 -30h-77z" />
    <glyph glyph-name="thorn" unicode="&#xfe;" horiz-adv-x="741" 
d="M410 567q91 0 161.5 -22t105.5 -57.5t50.5 -78.5t-2.5 -85.5t-55 -78t-105.5 -57.5t-154.5 -22h-104v-166h-213v34l-1 246q0 22 -12.5 35t-27.5 18t-27.5 18t-12.5 34q0 18 12.5 36.5t27.5 32.5t28 34.5t13 40.5l2 86v85h211v-133h104zM410 189q46 0 79 36.5t41.5 88.5
t1.5 104.5t-40 89t-82 36.5h-105q-3 -56 -86 -105q-16 -10 -41 -17.5t-48.5 -11.5t-44.5 -9t-33.5 -11t-10.5 -15q3 -16 34.5 -15t70 8t74.5 0q42 -10 63.5 -36t22.5 -62v-81h104z" />
    <glyph glyph-name="ydieresis" unicode="&#xff;" 
d="M538 700h187v-181q0 -48 -32.5 -83t-84 -53.5t-120.5 -24.5v-32q-1 -57 -86 -108q-16 -9 -41 -16.5t-48.5 -12t-45 -9t-33.5 -10.5t-10 -15q2 -16 34 -15t70.5 8t74.5 0q28 -7 47.5 -21.5t28.5 -34t9 -42.5v-50h-213v60q0 18 -8.5 29.5t-20 17.5t-23.5 12t-20 17.5t-8 29
t12.5 36t27.5 32.5t27.5 34.5t12.5 40.5v47q-75 4 -132.5 22t-94 54t-36.5 87v181h187v-181q0 -21 5.5 -41.5t16 -39t24.5 -33t34 -23t42 -8.5h95q54 1 88 45t34 100v181zM290 815q-19 0 -32.5 13.5t-13.5 32.5t13.5 32t32.5 13t32 -13t13 -32t-13 -32.5t-32 -13.5zM447 815
q-19 0 -32.5 13.5t-13.5 32.5t13.5 32t32.5 13t32.5 -13t13.5 -32t-13.5 -32.5t-32.5 -13.5z" />
    <glyph glyph-name="dotlessi" unicode="&#x131;" horiz-adv-x="239" 
d="M152 217q56 -14 57 -66v-178h-142v23v163q0 14 -8.5 22.5t-18 12t-18 12t-8.5 22.5q0 17 26.5 45.5t26.5 49.5l2 57v101h140l-1 -146q0 -38 -57 -72q-15 -9 -46.5 -15.5t-52 -12t-19.5 -14.5q2 -11 23 -10t46.5 6t49.5 0z" />
    <glyph glyph-name="Lslash" unicode="&#x141;" horiz-adv-x="638" 
d="M314 271v-248h333v-22h-546v34l-1 163l-60 -34l1 29l59 34v54q1 22 -8 34t-21.5 16.5l-25 9t-21.5 14.5t-9 29q0 15 7.5 28.5t19 25.5t23 25t22 30.5t14.5 36.5l1 86v85h212v-153q-2 -57 -87 -109q-15 -9 -40.5 -16.5t-48.5 -11.5t-44.5 -9t-34 -11t-10.5 -15
q3 -16 34.5 -15t70 8t74.5 0q39 -9 61 -33l145 85v-30l-131 -76q11 -20 11 -44z" />
    <glyph glyph-name="lslash" unicode="&#x142;" horiz-adv-x="638" 
d="M314 271v-248h333v-22h-546v34l-1 163l-60 -34l1 29l59 34v54q1 22 -8 34t-21.5 16.5l-25 9t-21.5 14.5t-9 29q0 15 7.5 28.5t19 25.5t23 25t22 30.5t14.5 36.5l1 86v85h212v-153q-2 -57 -87 -109q-15 -9 -40.5 -16.5t-48.5 -11.5t-44.5 -9t-34 -11t-10.5 -15
q3 -16 34.5 -15t70 8t74.5 0q39 -9 61 -33l145 85v-30l-131 -76q11 -20 11 -44z" />
    <glyph glyph-name="OE" unicode="&#x152;" horiz-adv-x="1434" 
d="M1160 676q-52 0 -83 -20t-35.5 -48.5t16 -62t64 -59t69.5 -48.5t35.5 -43.5t7.5 -38t-13 -35.5q-13 -23 -49.5 -33.5t-78 -13t-81.5 -8t-66 -26t-26 -59.5q0 -46 25 -81t77.5 -55.5t125.5 -20.5l287 1v-25h-337q-284 0 -336 144q-56 -70 -145 -111.5t-192 -41.5
q-154 0 -270 61q-97 50 -96 111q0 55 86 99q23 12 61 22t58 18.5t18 22.5q-3 16 -35 15t-70.5 -8.5t-74.5 0.5q-76 18 -84 85q-9 72 61 148q92 102 253 128q45 7 93 7q106 0 197.5 -43.5t147.5 -118.5t63 -166q60 37 157 37q42 0 79 -8.5t57.5 -18.5t38 -18.5t25.5 -8.5
q14 0 18 12.5t-10 30.5q-32 38 -235 73q-40 7 -67 27t-38.5 45t-9.5 52.5t16.5 50.5t44.5 38t69 15h457v-24zM425 7q51 0 97 45t74 123t28 169t-28 169.5t-74 123.5t-97 45q-44 0 -84.5 -34t-70 -94t-39.5 -134v-1q-2 -17 4 -28t17 -16t22.5 -9t21 -12.5t11.5 -23.5t-5 -27
t-18 -21t-22 -18.5t-17 -22.5t-3 -30q7 -42 35.5 -89.5t69.5 -81t78 -33.5z" />
    <glyph glyph-name="oe" unicode="&#x153;" horiz-adv-x="1434" 
d="M1160 676q-52 0 -83 -20t-35.5 -48.5t16 -62t64 -59t69.5 -48.5t35.5 -43.5t7.5 -38t-13 -35.5q-13 -23 -49.5 -33.5t-78 -13t-81.5 -8t-66 -26t-26 -59.5q0 -46 25 -81t77.5 -55.5t125.5 -20.5l287 1v-25h-337q-284 0 -336 144q-56 -70 -145 -111.5t-192 -41.5
q-154 0 -270 61q-97 50 -96 111q0 55 86 99q23 12 61 22t58 18.5t18 22.5q-3 16 -35 15t-70.5 -8.5t-74.5 0.5q-76 18 -84 85q-9 72 61 148q92 102 253 128q45 7 93 7q106 0 197.5 -43.5t147.5 -118.5t63 -166q60 37 157 37q42 0 79 -8.5t57.5 -18.5t38 -18.5t25.5 -8.5
q14 0 18 12.5t-10 30.5q-32 38 -235 73q-40 7 -67 27t-38.5 45t-9.5 52.5t16.5 50.5t44.5 38t69 15h457v-24zM425 7q51 0 97 45t74 123t28 169t-28 169.5t-74 123.5t-97 45q-44 0 -84.5 -34t-70 -94t-39.5 -134v-1q-2 -17 4 -28t17 -16t22.5 -9t21 -12.5t11.5 -23.5t-5 -27
t-18 -21t-22 -18.5t-17 -22.5t-3 -30q7 -42 35.5 -89.5t69.5 -81t78 -33.5z" />
    <glyph glyph-name="Scaron" unicode="&#x160;" horiz-adv-x="746" 
d="M223 525q0 -50 28 -80t73 -41t99 -16.5t108 -12t98.5 -21t72.5 -51t28 -94.5q0 -65 -47.5 -114.5t-120.5 -73.5t-160.5 -27.5t-166 14.5t-139 61.5t-77.5 104.5l24 15q14 -45 54 -80t91 -53.5t107 -20t102.5 14.5t77 56t30.5 99q0 49 -16.5 83t-44 51t-63.5 26.5
t-75.5 12l-79 5t-75.5 8.5t-63.5 18.5t-44 40t-16.5 68.5q0 53 41.5 94.5t105 63t141 27.5t149 -5t129 -41.5t80.5 -76.5l-20 -9q-28 38 -81 62.5t-111.5 28.5t-112.5 -7t-89.5 -45.5t-35.5 -84.5zM348 882q-62 0 -85 49l-7 16h56l3 -7q9 -17 26 -21.5t36 -5t28 -7.5
q22 -19 -11 -39q-18 -11 -11 -26l12 -26l70 131h57l-87 -163h-86l-28 59q-6 12 1 19.5t25 8.5q51 4 60 19q3 4 0.5 6t-6.5 1q-2 0 -6 -2l-9 -4.5t-15 -5t-23 -2.5z" />
    <glyph glyph-name="scaron" unicode="&#x161;" horiz-adv-x="746" 
d="M223 525q0 -50 28 -80t73 -41t99 -16.5t108 -12t98.5 -21t72.5 -51t28 -94.5q0 -65 -47.5 -114.5t-120.5 -73.5t-160.5 -27.5t-166 14.5t-139 61.5t-77.5 104.5l24 15q14 -45 54 -80t91 -53.5t107 -20t102.5 14.5t77 56t30.5 99q0 49 -16.5 83t-44 51t-63.5 26.5
t-75.5 12l-79 5t-75.5 8.5t-63.5 18.5t-44 40t-16.5 68.5q0 53 41.5 94.5t105 63t141 27.5t149 -5t129 -41.5t80.5 -76.5l-20 -9q-28 38 -81 62.5t-111.5 28.5t-112.5 -7t-89.5 -45.5t-35.5 -84.5zM348 882q-62 0 -85 49l-7 16h56l3 -7q9 -17 26 -21.5t36 -5t28 -7.5
q22 -19 -11 -39q-18 -11 -11 -26l12 -26l70 131h57l-87 -163h-86l-28 59q-6 12 1 19.5t25 8.5q51 4 60 19q3 4 0.5 6t-6.5 1q-2 0 -6 -2l-9 -4.5t-15 -5t-23 -2.5z" />
    <glyph glyph-name="Ydieresis" unicode="&#x178;" 
d="M538 700h187v-181q0 -48 -32.5 -83t-84 -53.5t-120.5 -24.5v-32q-1 -57 -86 -108q-16 -9 -41 -16.5t-48.5 -12t-45 -9t-33.5 -10.5t-10 -15q2 -16 34 -15t70.5 8t74.5 0q28 -7 47.5 -21.5t28.5 -34t9 -42.5v-50h-213v60q0 18 -8.5 29.5t-20 17.5t-23.5 12t-20 17.5t-8 29
t12.5 36t27.5 32.5t27.5 34.5t12.5 40.5v47q-75 4 -132.5 22t-94 54t-36.5 87v181h187v-181q0 -21 5.5 -41.5t16 -39t24.5 -33t34 -23t42 -8.5h95q54 1 88 45t34 100v181zM290 815q-19 0 -32.5 13.5t-13.5 32.5t13.5 32t32.5 13t32 -13t13 -32t-13 -32.5t-32 -13.5zM447 815
q-19 0 -32.5 13.5t-13.5 32.5t13.5 32t32.5 13t32.5 -13t13.5 -32t-13.5 -32.5t-32.5 -13.5z" />
    <glyph glyph-name="Zcaron" unicode="&#x17d;" horiz-adv-x="726" 
d="M413 271l-176 -248q54 0 121.5 14t125.5 34t108.5 40t79.5 34l29 14v-158h-693l24 34l175 246q12 18 12.5 31t-7 20.5t-14.5 15.5t-7 20.5t12 30.5q15 21 51.5 41.5t74 42t55.5 47.5l62 86l45 62q-48 0 -99.5 -8.5t-95.5 -21.5t-86 -29t-74.5 -32t-57 -29.5t-37.5 -21.5
l-13 -8v173h690l-109 -154q-42 -56 -163 -108q-34 -14 -87.5 -21t-90.5 -13t-44 -19q-8 -15 17 -17q6 -1 91 3q45 2 65 -3q35 -10 38 -37t-22 -61zM323 882q-63 0 -86 49l-7 16h57l2 -7q9 -17 26 -21.5t36 -5t28 -7.5q22 -19 -11 -39q-18 -11 -11 -26l13 -26l70 131h56
l-87 -163h-86l-28 59q-6 12 1 19.5t25 8.5q51 4 61 19q2 4 -0.5 6t-6.5 1q-1 0 -5.5 -2t-9.5 -4.5t-15 -5t-22 -2.5z" />
    <glyph glyph-name="zcaron" unicode="&#x17e;" horiz-adv-x="726" 
d="M413 271l-176 -248q54 0 121.5 14t125.5 34t108.5 40t79.5 34l29 14v-158h-693l24 34l175 246q12 18 12.5 31t-7 20.5t-14.5 15.5t-7 20.5t12 30.5q15 21 51.5 41.5t74 42t55.5 47.5l62 86l45 62q-48 0 -99.5 -8.5t-95.5 -21.5t-86 -29t-74.5 -32t-57 -29.5t-37.5 -21.5
l-13 -8v173h690l-109 -154q-42 -56 -163 -108q-34 -14 -87.5 -21t-90.5 -13t-44 -19q-8 -15 17 -17q6 -1 91 3q45 2 65 -3q35 -10 38 -37t-22 -61zM323 882q-63 0 -86 49l-7 16h57l2 -7q9 -17 26 -21.5t36 -5t28 -7.5q22 -19 -11 -39q-18 -11 -11 -26l13 -26l70 131h56
l-87 -163h-86l-28 59q-6 12 1 19.5t25 8.5q51 4 61 19q2 4 -0.5 6t-6.5 1q-1 0 -5.5 -2t-9.5 -4.5t-15 -5t-22 -2.5z" />
    <glyph glyph-name="circumflex" unicode="&#x2c6;" horiz-adv-x="298" 
d="M275 525l7 -15h-56l-3 6q-9 18 -26 22.5t-36 5t-28 7.5q-22 19 11 39q18 11 11 26l-12 26l-71 -131h-56l87 163h86l28 -59q4 -8 2 -14t-9 -10t-19 -5q-51 -3 -60 -19q-3 -3 -0.5 -5t6.5 -2q1 1 7.5 4.5t18 6.5t27.5 3q62 0 85 -49z" />
    <glyph glyph-name="caron" unicode="&#x2c7;" horiz-adv-x="297" 
d="M226 674h56l-7 -16q-23 -48 -85 -48q-16 0 -27.5 3t-18 6.5t-7.5 3.5q-4 1 -6.5 -1t0.5 -6q9 -15 60 -19q18 -1 25 -8.5t1 -19.5l-28 -59h-86l-87 163h56l71 -131l12 26q7 15 -11 26q-33 20 -11 39q9 7 28 7.5t36 5t26 21.5z" />
    <glyph glyph-name="ilde" unicode="&#x2dc;" horiz-adv-x="273" 
d="M18 619q22 16 47 16.5t48 -8l46 -17t48.5 -8t46.5 16.5v-63q-21 -16 -46.5 -16.5t-48.5 8t-46 17.5t-48 8t-47 -17v63z" />
    <glyph glyph-name="endash" unicode="&#x2013;" horiz-adv-x="610" 
d="M309 453h275v-141h-119l-163 -1q-12 0 -19.5 -5.5t-11.5 -13t-8 -15.5t-11.5 -13.5t-19.5 -5.5q-16 0 -45 27t-50 27l-57 1h-56v140h101q38 -1 72 -57q9 -16 15.5 -47.5t12 -52t14.5 -19.5q7 2 9 10.5t0.5 21t-3.5 28t-3 31t2 28.5q13 57 65 57z" />
    <glyph glyph-name="emdash" unicode="&#x2014;" horiz-adv-x="1045" 
d="M552 453h468v-141h-312l-163 -1q-15 0 -23.5 -8t-12 -18t-12 -18.5t-22.5 -8.5q-17 0 -45.5 27t-49.5 27l-57 1h-299v140h344q38 -1 72 -57q6 -11 11 -27.5t8 -32t6 -29.5t7 -22t10 -8q7 2 9 10.5t0.5 21t-3.5 28t-3.5 31t2.5 28.5q13 57 65 57z" />
    <glyph glyph-name="quoteleft" unicode="&#x2018;" horiz-adv-x="267" 
d="M140 594q41 0 70.5 -29t29.5 -71v-108h-208v208q0 45 47 92t86 47l23 -23q-30 0 -61 -32.5t-31 -83.5h44z" />
    <glyph glyph-name="quoteright" unicode="&#x2019;" horiz-adv-x="268" 
d="M27 688h208v-208q0 -22 -13.5 -47t-33.5 -45t-44 -33t-42 -13l-23 23q18 0 39 12.5t37 40.5t16 62h-44q-27 0 -50 13.5t-36.5 36.5t-13.5 50v108z" />
    <glyph glyph-name="quotesinglbase" unicode="&#x201a;" horiz-adv-x="259" 
d="M25 181h208v-208q0 -29 -22.5 -62t-54 -54.5t-56.5 -21.5l-23 23q18 0 39 13t37 40.5t16 61.5h-44q-27 0 -50 13.5t-36.5 36.5t-13.5 50v108z" />
    <glyph glyph-name="quoteleftreversed" unicode="&#x201b;" horiz-adv-x="268" 
d="M32 674h208v-108q0 -42 -29.5 -71t-70.5 -29h-44q0 -51 31 -83.5t61 -32.5l-23 -23q-18 0 -41.5 13t-43.5 33t-34 45.5t-14 47.5v208z" />
    <glyph glyph-name="quotedblleft" unicode="&#x201c;" horiz-adv-x="519" 
d="M140 594q41 0 70.5 -29t29.5 -71v-108h-208v208q0 45 47 92t86 47l23 -23q-30 0 -61 -32.5t-31 -83.5h44zM392 594q42 0 71 -29t29 -71v-108h-208v208q0 30 23 63t54 54.5t56 21.5l23 -23q-30 0 -60.5 -32.5t-30.5 -83.5h43z" />
    <glyph glyph-name="quotedblright" unicode="&#x201d;" horiz-adv-x="526" 
d="M27 580v108h208v-208q0 -22 -13.5 -47t-33.5 -45t-44 -33t-42 -13l-23 23q18 0 39 12.5t37 40.5t16 62h-44q-27 0 -50 13.5t-36.5 36.5t-13.5 50zM285 688h208v-208q0 -44 -46.5 -91t-86.5 -47l-23 23q31 0 61.5 32t30.5 83h-43q-28 0 -51 13.5t-36.5 36.5t-13.5 50v108z
" />
    <glyph glyph-name="quotedblbase" unicode="&#x201e;" horiz-adv-x="529" 
d="M25 73v108h208v-208q0 -29 -22.5 -62t-54 -54.5t-56.5 -21.5l-23 23q18 0 39 13t37 40.5t16 61.5h-44q-27 0 -50 13.5t-36.5 36.5t-13.5 50zM296 181h208v-208q0 -44 -47 -91t-87 -47l-22 23q30 0 60.5 32t30.5 83h-43q-42 0 -71 29.5t-29 70.5v108z" />
    <glyph glyph-name="dagger" unicode="&#x2020;" horiz-adv-x="567" 
d="M299 113q-15 -9 -46.5 -15.5t-52 -12t-19.5 -14.5q2 -7 10.5 -9t21 -0.5t28 3.5t31 3.5t28.5 -1.5q56 -14 57 -66v-238h-141v83l-1 163q0 14 -8 22.5t-18 12t-18.5 12t-8.5 22.5q0 17 27 46t27 49l1 57v188h-167v23h167v233h140v-233h160v-23h-160v-233q-1 -38 -58 -72z
" />
    <glyph glyph-name="daggerdbl" unicode="&#x2021;" horiz-adv-x="504" 
d="M272 276q-16 -9 -47.5 -16t-52 -12.5t-18.5 -13.5q1 -11 22.5 -10.5t46.5 5.5t49 0q57 -13 57 -65v-120h157v-22h-157v-259h-141v245v14h-169v22h169l-1 127q0 14 -8 23t-18 12t-18.5 12t-8.5 23q0 16 27 45t27 50l1 56v26h-170v23h170v233h140v-233h157v-23h-157v-71
q-1 -37 -57 -71z" />
    <glyph glyph-name="bullet" unicode="&#x2022;" horiz-adv-x="307" 
d="M153 255q-35 0 -64.5 17t-46.5 46t-17 63q0 51 37.5 88t90.5 37t91 -37t38 -88.5t-38 -88.5t-91 -37z" />
    <glyph glyph-name="ellipsis" unicode="&#x2026;" horiz-adv-x="985" 
d="M127 181q43 0 73.5 -30.5t30.5 -73.5t-30.5 -73.5t-73.5 -30.5q-28 0 -52 13.5t-38 37.5t-14 53q0 43 30.5 73.5t73.5 30.5zM494.5 181q43.5 0 74 -30.5t30.5 -73.5t-30.5 -73.5t-74 -30.5t-74 30.5t-30.5 73.5t30.5 73.5t74 30.5zM857.5 181q43.5 0 73.5 -30.5t30 -73.5
t-30 -73.5t-73.5 -30.5t-74 30.5t-30.5 73.5t30.5 73.5t74 30.5z" />
    <glyph glyph-name="perthousand" unicode="&#x2030;" horiz-adv-x="1224" 
d="M376 580.5q0 -64.5 -53 -110t-127 -45.5q-84 0 -135 37q-47 33 -11 66q9 8 23 16q10 5 27 9.5t25.5 8t7.5 9.5q-1 8 -15 7.5t-31 -4t-33 0.5q-42 9 -37 50q6 45 59 79q51 32 120 32q74 0 127 -45.5t53 -110zM196 432q35 0 61 43.5t26.5 104t-26 104.5t-61.5 44
q-29 0 -53.5 -33t-31.5 -82q-2 -15 15 -22t18 -17q2 -12 -14.5 -25.5t-13.5 -26.5v-1q5 -28 30.5 -58.5t49.5 -30.5zM654 335q75 0 127.5 -45.5t52.5 -109.5t-52.5 -110t-127.5 -46q-83 0 -135 37q-47 34 -11 66q9 9 24 16q10 5 26.5 9.5t25.5 8.5t8 10q-2 7 -16 6.5
t-30.5 -3.5t-32.5 0q-42 10 -37 50q5 45 59 79q50 32 119 32zM654 31q35 0 61.5 44t26.5 104.5t-26.5 104t-61.5 43.5q-29 0 -53.5 -32.5t-31.5 -82.5q-2 -15 15 -21.5t18 -17.5q2 -11 -14 -25t-14 -27q5 -29 30.5 -59.5t49.5 -30.5zM1025 335q74 0 127 -45.5t53 -109.5
t-53 -110t-127 -46q-84 0 -135 37q-47 34 -12 66q10 9 24 16q10 5 27 9.5t25.5 8.5t7.5 10q-1 7 -15 6.5t-31 -3.5t-33 0q-42 10 -37 50q6 45 59 79q51 32 120 32zM1025 31q34 0 60.5 44t26.5 104.5t-26.5 104t-60.5 43.5q-29 0 -53.5 -32.5t-31.5 -82.5q-2 -15 15 -21.5
t18 -17.5q1 -10 -7 -17.5t-15.5 -15.5t-5.5 -19q5 -29 30.5 -59.5t49.5 -30.5zM596 731h40l-359 -701h-40z" />
    <glyph glyph-name="guilsinglleft" unicode="&#x2039;" horiz-adv-x="526" 
d="M266 267q-15 19 -35.5 25t-38.5 -1l-74 -27l374 -154v-124l-464 191v189l166 61q35 12 57 -3t25 -53q3 -40 13 -70t20.5 -44.5t20.5 -19.5q11 -4 16.5 1t3.5 14q-1 2 -11 16t-19.5 39t-9.5 60q0 72 40.5 119t98.5 68l43 16v-124l-17 -7q-32 -12 -48.5 -31.5t-20 -41.5
t-4 -43.5t-6 -43.5t-20.5 -36q-17 -15 -32.5 -19.5t-35.5 5.5t-42 38z" />
    <glyph glyph-name="guilsinglright" unicode="&#x203a;" horiz-adv-x="526" 
d="M331 427l167 -62v-188l-464 -191v124l374 154l-75 27q-17 7 -38 1t-36 -25q-22 -28 -42 -38.5t-35.5 -5.5t-32.5 20q-15 14 -20 35.5t-6 43.5t-4.5 43.5t-20 41.5t-48.5 32l-17 7v124l43 -16q59 -21 99 -68t40 -119q0 -35 -9 -60t-19.5 -39t-10.5 -16q-1 -6 0.5 -10
t6.5 -6t13 1q16 8 32.5 42t21.5 92q3 38 25 53t56 3z" />
    <glyph glyph-name="fraction" unicode="&#x2044;" horiz-adv-x="681" 
d="M420 730h211l-81 -153q-31 -57 -143 -108q-30 -14 -83 -24t-88.5 -18t-40 -21.5t15.5 -15.5q8 0 86 9q51 5 74 -1q37 -10 45 -36.5t-11 -61.5l-142 -270h-213l18 35l129 246q9 17 7 29t-10.5 17t-17 13t-11.5 17t7 29q9 17 31.5 35.5t45 32.5t46 34.5t33.5 40.5l47 86z
" />
    <glyph glyph-name="Euro" unicode="&#x20ac;" horiz-adv-x="879" 
d="M475 -2q57 0 107.5 56t74.5 146h197q-47 -97 -150 -157.5t-229 -60.5q-155 0 -271 61q-96 51 -95 111q0 38 43 71h-129v27h170l1 0.5l1 0.5q23 12 61 22t58 18.5t18 22.5q-3 16 -35 15t-70 -8.5t-75 0.5q-63 15 -79 67h-50v27h45q-2 42 25.5 89t77.5 89t130.5 69
t173.5 27q127 0 230.5 -61t149.5 -160h-198q-24 90 -74.5 146.5t-107.5 56.5q-66 0 -121 -73t-72 -183h307v-27h-307q2 -10 10 -17t18 -10.5t20 -7.5t17.5 -12.5t9.5 -21.5q1 -12 -3.5 -22.5t-10 -16.5t-17.5 -16t-16 -14h279v-27h-296q-3 -11 0 -23q24 -91 74.5 -147.5
t107.5 -56.5z" />
    <glyph glyph-name="trademark" unicode="&#x2122;" horiz-adv-x="984" 
d="M947 557v-252h-101v287q0 23 -3.5 40.5t-7.5 26.5t-10.5 13.5t-10.5 5.5t-10 1q-25 0 -31.5 -18.5t0.5 -47t12.5 -61.5t7 -61.5t-17.5 -47.5t-59 -19q-44 0 -68.5 14t-31.5 35.5t-6 48t6 53t7 48.5t-6 35.5t-30 13.5q-25 0 -33 -22.5t-8 -86.5v-258h-106v374h-114v-72
q-1 -31 -48 -59q-13 -8 -39 -13.5t-43.5 -10t-15.5 -12.5q1 -9 18.5 -8t39 5t41.5 -1q47 -11 47 -54v-149h-118v19v136q1 12 -5.5 19.5t-15 10t-16 10t-7.5 18.5q0 14 22 38t22 41l1 48v34h-159v13h508q44 0 69 -22.5t31.5 -56t6.5 -67.5t1.5 -63.5t10.5 -38.5t16.5 -5.5
t8.5 14.5q0 4 -2.5 19t-5 32t-3 39.5t1.5 43t11 40.5t23 34.5t40 23t60 6.5q38 -1 63.5 -12.5t36.5 -30.5t15 -35.5t5 -36.5v-19z" />
    <glyph glyph-name="minus" unicode="&#x2212;" horiz-adv-x="513" 
d="M309 453h179v-141h-23l-163 -1q-12 0 -19.5 -5.5t-11.5 -13t-8 -15.5t-11.5 -13.5t-19.5 -5.5q-16 0 -45 27t-50 27l-57 1h-56v140h101q38 -1 72 -57q9 -16 15.5 -47.5t12 -52t14.5 -19.5q7 2 9 10.5t0.5 21t-3.5 28t-3 31t2 28.5q13 57 65 57z" />
    </font>
</defs>
</svg>
